<?xml version="1.0" encoding="utf-8"?>
<!-- Generator: Adobe Illustrator 14.0.0, SVG Export Plug-In . SVG Version: 6.00 Build 43363)  -->
<!DOCTYPE svg PUBLIC "-//W3C//DTD SVG 1.1//EN" "http://www.w3.org/Graphics/SVG/1.1/DTD/svg11.dtd">
<svg version="1.1" id="Ebene_1" xmlns="http://www.w3.org/2000/svg" xmlns:xlink="http://www.w3.org/1999/xlink" x="0px" y="0px"
	 width="100px" height="100px" viewBox="0 0 100 100" enable-background="new 0 0 100 100" xml:space="preserve">
<circle fill="#B2B2B2" cx="50" cy="50" r="50"/>
<g>
	<g>
		<path fill-rule="evenodd" clip-rule="evenodd" d="M50.788,20.583c2.31,0.541,4.052,1.65,6.271,2.281l0.534,1.102l1.177-0.342
			c7.039,2.779,13.997,5.641,21.095,8.362c0.086-1.036-0.339-1.562-0.19-2.661h0.95l0.57-0.76c0.904,0.743,0.454,2.84,0.761,4.181
			c3.695,1.942,8.312,2.964,11.782,5.131c-0.584,7.933-1.326,17.158-2.471,25.657c-0.348,2.588,0.066,6.569-0.95,8.361
			c-0.203,0.358,0.185,0.646-0.76,0.57l-0.621-0.621l-0.709-0.519c1.571-10.086,1.911-21.401,3.421-31.548c-0.127,0-0.254,0-0.381,0
			c-0.924,0.342-1.526,1.007-2.66,1.14l-0.57-0.76l-0.76-0.57c0.471-0.859,1.955-0.705,2.47-1.52
			C76.415,32.965,63.236,27.71,50.218,22.294l0.57-0.76V20.583z"/>
		<path fill-rule="evenodd" clip-rule="evenodd" d="M85.566,73.796l0.761,0.57c-5.003,3.023-10.435,5.258-16.154,8.172
			c-1.7,0.867-3.812,2.538-5.321,2.661c-1.593,0.129-4.857-1.143-7.031-1.711c-15.352-4.012-32.593-8.601-47.322-12.543
			c1.312-11.318,3.24-24.087,4.751-36.108c0.506-4.024,0.678-6.215,3.991-7.412l0.57,0.76l0.76,0.57
			c-0.157,0.477-0.666,0.601-0.95,0.95c17.121,5.938,34.317,11.801,51.502,17.674c1.027-0.43,1.797-1.117,3.041-1.33l0.57,0.76
			l0.76,0.57c-0.759,0.888-2.256,1.039-3.23,1.71c-2.029,11.021-4.037,22.063-6.082,33.068c6.514-2.799,12.338-6.287,18.814-9.122
			L85.566,73.796z M17.91,31.416c0,0.19,0,0.38,0,0.57c-1.742,12.448-3.295,25.084-5.131,37.438
			c14.522,3.909,30.144,8.051,44.661,11.783c2.055,0.528,4.145,1.452,6.271,1.141c2.42-10.757,4.195-22.158,6.271-33.258
			C52.474,43.352,35.416,37.159,17.91,31.416z"/>
		<path fill-rule="evenodd" clip-rule="evenodd" d="M22.091,42.629c1.917,0.236,3.604,0.703,5.321,1.14
			c0.297,0.639-0.183,1.907-0.19,2.851c-1.931-0.35-3.809-0.752-5.512-1.33C21.816,44.381,21.828,43.379,22.091,42.629z"/>
		<path fill-rule="evenodd" clip-rule="evenodd" d="M30.453,43.579c0.76,0,1.521,0,2.281,0c0.236,0.587,0.296,1.351,0.38,2.09
			c0.678,0.272,1.573,0.327,2.281,0.57c0.563-0.323,0.54-1.234,0.95-1.71c0.978-0.027,1.428,0.472,2.09,0.76
			c0.438,0.46-0.193,0.923-0.19,1.52c0.604,0.346,1.7,0.201,2.09,0.76c-0.271,0.806-0.166,1.988-0.57,2.661
			c-1.561-0.276-2.882-0.792-4.561-0.95c0,0.253,0,0.507,0,0.76c1.034,0.487,2.476,0.564,3.611,0.951
			c0.128,0.951-0.176,1.471-0.19,2.28c-1.444-0.076-2.533-0.508-3.801-0.761c0.017,0.271,0.031,0.539-0.19,0.57
			c1.046,1.045,3.353,0.829,4.751,1.521c0.114,1.001-0.141,1.633-0.19,2.471c-0.886,0.063-1.499-0.148-2.09-0.38
			c0.226,1.104,0.711,1.948,1.14,2.851c-0.013,0.558-0.435,0.706-0.76,0.95c1.194,0.304,0.567,1.675,0.57,2.851
			c-0.25,0.244-0.701,0.244-0.95,0c0.144,0.474,0.098,1.51-0.76,1.9c0.119,0.642,1.054,0.467,1.14,1.141
			c0.516,3.557-4.076,4.911-4.561,1.33c-0.947,0.193-1.62,0.661-2.851,0.57c-0.17-0.717-0.164-1.61-0.38-2.28
			c0.735-0.532,2.14-0.395,2.851-0.95c-0.382-0.568-0.107-1.794-0.19-2.661c-0.519-0.558-1.563-0.591-2.47-0.76
			c-0.248,1.134,1.109,0.664,1.9,0.76c0,0.76,0,1.521,0,2.28c-0.697,0-1.394,0-2.091,0c-0.396,1.188-0.395,2.772-1.33,3.421
			c-1.071-0.132-1.944-0.463-2.851-0.76c0.07-0.754-0.174-1.821,0.19-2.28c0.589-0.02,0.908,0.231,1.33,0.38
			c0.16-0.221,0.251-0.51,0.19-0.95c-0.404-0.356-1.399-0.122-1.71-0.57c0.094-0.667,0.283-1.237,0.19-2.091
			c0.692-0.059,1.237,0.03,1.71,0.19c0.412,0.032,0.086-0.674,0.19-0.95c-0.368-0.393-1.158-0.363-1.71-0.57
			c0.07-0.88,0.135-1.766,0.38-2.471c0.837-0.25,1.633,0.632,1.9-0.19c-0.119-0.451-1.17,0.03-1.331-0.38c0-0.696,0-1.394,0-2.09
			c0.884-0.117,2.741,0.077,4.181,0c-1.238-0.536-2.815-0.733-4.181-1.141c0.07-0.881,0.135-1.766,0.38-2.471
			c1.787,0.113,2.997,0.804,4.751,0.95c0-0.253,0-0.507,0-0.76c-1.1-0.484-2.467-0.701-3.801-0.95
			c-0.149-0.973,0.267-1.381,0.19-2.281c1.588-0.004,2.6,0.567,3.991,0.76c-0.074-2.08-3.255-1.053-4.371-2.091
			c0.143-0.871,0.157-1.87,0.38-2.661c0.686,0.075,1.274,0.246,1.9,0.38C30.692,44.958,30.337,44.033,30.453,43.579z M32.354,57.643
			c-0.83-0.134-1.07,0.323-1.9,0.189c0.061,0.441-0.03,0.73-0.19,0.951c0.624,0.326,1.463,0.437,2.281,0.569
			c0.082-1.121-0.065-2.472,0.57-3.04c0.425,0.462,1.657,0.116,1.9,0.76c0.032,1.108-0.332,1.822-0.19,3.041
			c0.589-0.251,1.054,0.563,1.331,0c-0.477-0.6-0.702-1.452-0.95-2.281c0.153-0.67,1.16-0.486,1.14-1.33
			c-1.41-0.237-2.704-0.59-3.991-0.95C32.354,56.249,32.354,56.945,32.354,57.643z M34.634,63.724c0.536,0.03,0.476-0.537,0.76-0.76
			c-0.359,0.042-0.419-0.214-0.76-0.19C34.634,63.091,34.634,63.407,34.634,63.724z M35.205,67.145
			c0.565-0.016,0.929-1.21,0.57-1.521C35.577,66.11,34.609,66.455,35.205,67.145z"/>
		<path fill-rule="evenodd" clip-rule="evenodd" d="M27.223,47.95c0.147,1.161-0.249,1.778-0.19,2.851
			c-2.241-0.229-4.019-0.922-6.081-1.33c0.032-0.981-0.118-2.145,0.19-2.851C23.344,46.887,25.218,47.484,27.223,47.95z"/>
		<path fill-rule="evenodd" clip-rule="evenodd" d="M54.779,48.9c1.717,4.047,4.179,7.351,7.031,10.263
			c-0.472,1.111-1.373,1.794-1.9,2.851c-1.057-0.78-1.774-1.9-2.66-2.851c-0.374,0.449-0.218,1.43-0.57,1.9
			c-4.032-1.036-8.202-1.935-12.163-3.041c-0.149-0.846,0.253-1.141,0.19-1.9c-1.326,0.258-2.043,1.124-3.421,1.33
			c-0.305-0.962-0.488-2.045-0.57-3.23c3.828-1.557,7.18-3.589,10.072-6.082C52.248,48.264,53.238,48.857,54.779,48.9z
			 M46.227,55.362c3.217,0.774,6.375,1.606,9.692,2.28c-1.147-2.272-2.599-4.242-3.801-6.462
			C50.299,52.719,48.198,53.975,46.227,55.362z"/>
		<path fill-rule="evenodd" clip-rule="evenodd" d="M21.141,50.991c2.019,0.071,3.595,0.585,5.131,1.14
			c0.113,1.001-0.141,1.633-0.19,2.471c-1.917-0.174-3.358-0.823-5.131-1.141C20.806,52.43,21.186,51.922,21.141,50.991z"/>
		<path fill-rule="evenodd" clip-rule="evenodd" d="M20.761,54.792c1.967,0.124,3.503,0.678,5.131,1.14
			c0.003,0.954-0.146,1.754-0.38,2.471c-1.63-0.461-3.436-0.745-4.941-1.33C20.422,56.1,20.837,55.691,20.761,54.792z"/>
		<path fill-rule="evenodd" clip-rule="evenodd" d="M20.191,58.402c2.016,0.138,3.403,0.904,5.321,1.141
			c-0.141,2.394-0.485,4.583-0.76,6.842c-1.143-0.124-1.968-0.566-3.041-0.761c-0.748-0.304-0.066,0.821-0.57,0.761
			c-0.533-0.102-0.988-0.279-1.521-0.38C19.44,63.818,20.089,60.929,20.191,58.402z M21.901,63.153
			c0.422,0.148,0.741,0.399,1.33,0.381c-0.037-0.734-0.007-1.4,0.19-1.9c-0.538-0.032-0.792-0.349-1.33-0.381
			C21.895,61.753,21.864,62.42,21.901,63.153z"/>
		<path fill-rule="evenodd" clip-rule="evenodd" d="M40.716,59.733c6.513,1.215,12.54,2.916,18.624,4.561
			c0.043,1.246-0.692,1.715-0.76,2.851c-3.244-0.811-6.468-1.641-9.692-2.471c-1.165,1.179-1.673,3.015-2.851,4.182
			c1.88,0.906,4.788,0.787,7.031,1.33c0.339-0.6-0.389-1.76-0.189-2.851c0.73-0.347,1.765-0.39,2.66-0.57
			c0.279,2.951,1.001,5.461,1.33,8.362c-0.656,0.294-2.13,0.569-2.66,0.38c-0.292-0.722-0.474-1.554-0.57-2.471
			c-5.009-0.438-9.592-1.304-14.063-2.28c0.066-1.012,0.315-1.84,0.38-2.851c0.875,0.265,1.949,0.331,2.851,0.569
			c1-1.406,2.06-2.754,2.851-4.371c-1.316-1.027-3.754-0.933-5.321-1.71C40.42,61.464,40.727,60.758,40.716,59.733z"/>
		<g>
			<path fill-rule="evenodd" clip-rule="evenodd" fill="none" stroke="#000000" stroke-width="1.7693" stroke-linecap="round" d="
				M57.594,23.966c5.727-8.672,21.685-5.316,23.031,5.359"/>
			<path fill-rule="evenodd" clip-rule="evenodd" fill="none" stroke="#000000" stroke-width="1.9263" stroke-linecap="round" d="
				M19.811,28.186c5.648-4.008,11.232-8.144,16.961-12.06c4.768,1.481,9.322,3.679,14.017,5.408"/>
			<path fill-rule="evenodd" clip-rule="evenodd" fill="none" stroke="#000000" stroke-width="1.9121" stroke-linecap="round" d="
				M74.734,46.81c4.361-2.324,8.94-4.331,13.303-6.651"/>
			<path fill-rule="evenodd" clip-rule="evenodd" fill="none" stroke="#000000" stroke-width="1.8899" stroke-linecap="round" d="
				M85.566,73.796c1.063-0.756,2.476-0.945,3.37-1.951"/>
		</g>
	</g>
</g>
</svg>
