<?xml version="1.0" encoding="utf-8"?>
<!-- Generator: Adobe Illustrator 14.0.0, SVG Export Plug-In . SVG Version: 6.00 Build 43363)  -->
<!DOCTYPE svg PUBLIC "-//W3C//DTD SVG 1.1//EN" "http://www.w3.org/Graphics/SVG/1.1/DTD/svg11.dtd">
<svg version="1.1" id="Ebene_1" xmlns="http://www.w3.org/2000/svg" xmlns:xlink="http://www.w3.org/1999/xlink" x="0px" y="0px"
	 width="100px" height="100px" viewBox="0 0 100 100" enable-background="new 0 0 100 100" xml:space="preserve">
<circle fill="#B2B2B2" cx="50" cy="50" r="50"/>
<g>
	<g>
		<path fill-rule="evenodd" clip-rule="evenodd" d="M76.271,18.522c0,0.048,0,0.095,0,0.143c0.339,0.329,1.284,0.051,1.86,0.143
			c0,0.286,0,0.572,0,0.858c-0.603,0.304-1.743,0.069-2.575,0.143c0,0.239,0,0.477,0,0.715c0.547,0.407,2.021-0.114,2.575,0.286
			c0,0.286,0,0.572,0,0.858c-0.811,0-1.621,0-2.433,0c-0.265,0.308-0.097,1.048-0.143,1.574c-0.572,0-1.145,0-1.717,0
			c0-0.477,0-0.954,0-1.431c-0.572-0.382-2.004,0.096-2.576-0.286c0-0.239,0-0.477,0-0.716c0.603-0.304,1.743-0.069,2.576-0.143
			c0-0.238,0-0.477,0-0.715c-0.547-0.407-2.022,0.114-2.576-0.286c0-0.286,0-0.572,0-0.858c0.62,0,1.24,0,1.86,0
			c-0.647-1.642-1.901-2.677-2.433-4.436c0.62,0,1.24,0,1.86,0c0.559,1.397,1.444,2.466,2.003,3.863
			c0.46,0.125,0.297-0.371,0.572-0.429l0.521,0.439L76.271,18.522z"/>
		<path fill-rule="evenodd" clip-rule="evenodd" d="M27.337,54.292c0.255,0.557,0.594,1.028,0.716,1.718
			c-1.626,0.518-4.249,1.083-6.153,0.429c0.063-0.699,0.295-1.231,0.286-2.003C23.938,54.767,25.647,54.43,27.337,54.292z"/>
		<path fill-rule="evenodd" clip-rule="evenodd" d="M29.484,57.727c0.851,0.056,1.272,0.54,1.86,0.858
			c-0.546,1.938-0.762,4.117-0.572,6.438c-0.653-0.063-1.575,0.145-2.003-0.144C28.458,62.291,28.878,59.807,29.484,57.727z"/>
		<path fill-rule="evenodd" clip-rule="evenodd" d="M26.336,59.729c-1.716,0.859-3.304,1.847-5.151,2.575
			c0.996,1.389,2.257,2.513,3.72,3.434c0.365-0.827,0.528-1.856,0.715-2.861c0.764,0,1.158,0.368,1.717,0.572
			c-0.244,2.236-0.853,4.107-1.288,6.152c-0.756-0.102-1.371-0.346-1.86-0.715c0.243-0.281,0.165-0.885,0.429-1.145
			c-2.614-2.061-5.253-4.096-6.868-7.154c0.069-0.789,0.703-1.014,1.001-1.574c0.515,0.438,0.684,1.224,1.145,1.717
			c1.989-0.872,3.681-2.042,5.723-2.861C25.754,58.594,26.218,58.989,26.336,59.729z"/>
		<path fill-rule="evenodd" clip-rule="evenodd" d="M37.353,65.31c-3.713,1.771-5.583,5.387-8.584,7.869
			c-0.668-0.143-0.741-0.881-1.288-1.145c1.025-1.741,2.76-2.772,3.863-4.436c-0.027-0.202-1.057,0.228-1.288-0.143
			c0.333-0.621,0.595-1.313,1.001-1.86c2.642-0.22,4.291-1.432,6.152-2.433c0.222,0.498,1.237,0.952,0.858,1.574l-0.691-0.131
			L37.353,65.31z"/>
		<path fill-rule="evenodd" clip-rule="evenodd" d="M40.572,68.161l-0.071-0.705c0.457,0.122,0.442-0.226,0.715-0.286
			c0.67,0.235,1.012,0.8,1.574,1.145c-0.015,0.403-0.539,0.607-0.143,1.001l-0.461,0.319l-0.397,0.396c-0.143,0-0.286,0-0.429,0
			c0,0.096,0,0.19,0,0.286l-0.644,0.071l0.071,0.645c-0.203-0.013-0.405-0.024-0.429,0.143h-0.715l-0.429,0.572
			c-0.442-0.178-0.768-0.473-1.001-0.858l0.572-0.43v-0.715c0.047,0,0.095,0,0.143,0c0-0.144,0-0.286,0-0.43l0.644,0.072
			l0.072-0.645c0.127-0.063,0.256-0.125,0.286-0.286L40.572,68.161z"/>
		<path fill-rule="evenodd" clip-rule="evenodd" d="M61.391,23.101c0.624,0.109,0.783-0.719,1.288-0.286
			c0.676,1.661,1.617,3.057,2.718,4.292l-0.572,0.429l-0.429,0.572c-0.607-0.467-0.892,0.377-1.431,0.429l-0.43-0.572l-0.572-0.429
			c0.332-0.76-0.142-1.828-0.716-2.146c-2.347,2.088-4.78,4.09-7.297,6.009l-0.429-0.572l-0.572-0.429
			c-0.354-0.17-0.531-0.519-0.43-1.145c0.572,0,1.145,0,1.717,0c-0.21-1.469-1.868-2.703-2.289-4.436c0.62,0,1.24,0,1.86,0
			c0.553,1.164,1.117,2.316,1.859,3.291c1.293-0.711,1.849-2.158,2.719-3.291c1.08,0.144,2.218-0.316,2.003-1.001l0.501-0.358
			L61.391,23.101z"/>
		<path fill-rule="evenodd" clip-rule="evenodd" d="M71.549,34.833l0.572-0.429c0.048,0,0.096,0,0.144,0l0.036,0.966l0.966,0.036
			c0,0.095,0,0.191,0,0.286l-0.572,0.429l-0.43,0.572c-0.501-0.405-1.01-0.802-1.288-1.431L71.549,34.833z"/>
		<path fill-rule="evenodd" clip-rule="evenodd" d="M76.16,43.179l-0.176,0.955c-0.252,0.129-0.442,0.32-0.572,0.572l-0.999,0.136
			l-0.002,1.008c-0.257-0.018-0.302,0.175-0.572,0.143l-0.43-0.572l-0.572-0.429c1.062-1.275,2.4-2.274,3.577-3.434
			c0.025-0.502-0.483-0.47-0.572-0.858l0.572-0.429l0.429-0.572c0.525,0,1.05,0,1.574,0c0-0.238,0-0.477,0-0.715
			c-0.116-0.027-0.143-0.144-0.286-0.143l0.071-0.572l-0.5-0.286c0-0.096,0-0.191,0-0.286l0.623-0.276l0.521-0.439
			c0.275,0.059,0.112,0.555,0.572,0.43l0.596,0.357l0.691-0.071c0.006,0.709,1.486-0.055,1.717,0.429c0,0.238,0,0.477,0,0.715
			c-0.832,0.169-2.455-0.452-2.432,0.572c0.256,0.745,2.176-0.173,2.432,0.572c0,0.238,0,0.477,0,0.715c-0.763,0-1.525,0-2.289,0
			c-0.355,0.217,0.088,1.232-0.286,1.431c-0.646-0.022-1.515,0.18-1.573-0.429c-0.276,0.583-0.986,0.731-1.146,1.431L76.16,43.179z"
			/>
		<path fill-rule="evenodd" clip-rule="evenodd" d="M67.25,51.862l-0.137,0.999c-0.894,0.537-1.608,1.253-2.146,2.146l-1.009,0.002
			l-0.136,1c-0.988,0.442-1.42,1.441-2.29,2.003l-0.429-0.572l-0.572-0.43c-4.996-4.925-9.67-10.17-15.023-14.737l-0.548-0.453
			l-0.453-0.549c0.898-0.278,1.09-1.689,0.429-2.432l-0.429-0.572l-0.572-0.429c0.461-0.492,0.955-0.953,1.574-1.288l0.429,0.573
			l0.429,0.572c0.278,0.485,0.126,1.4,0.572,1.717l0.429,0.572l0.572,0.429c-0.184,0.389-0.732,0.412-0.858,0.858
			c4.876,4.757,9.694,9.575,14.451,14.452c2.063-1.61,3.783-3.563,5.724-5.294l0.43,0.573l0.572,0.429c0,0.144,0,0.286,0,0.43
			L67.25,51.862z"/>
		<path fill-rule="evenodd" clip-rule="evenodd" d="M63.68,60.444l0.572,0.43c-0.732,1.176-1.825,1.989-2.861,2.861l-0.43-0.572
			l-0.572-0.429c-2.882,0.15-5.988-0.55-7.726-2.004l0.572-0.429l0.429-0.572c0.894,0.347,1.734,0.746,2.575,1.145
			c0.604-0.065,0.659-0.677,1.146-0.858l0.429,0.572l0.572,0.43c1.933,0.5,3.514-0.588,4.865-1.146L63.68,60.444z"/>
		<path fill-rule="evenodd" clip-rule="evenodd" d="M54.094,69.602l0.572,0.43c-0.542,0.555-1.135,1.06-1.717,1.574l-0.43-0.572
			l-0.572-0.43c0-0.096,0-0.19,0-0.286l1.002-0.144l0.143-1.001c0.257,0.018,0.302-0.176,0.572-0.144L54.094,69.602z"/>
		<path fill-rule="evenodd" clip-rule="evenodd" d="M41.359,81.764l0.572,0.43c-0.465,0.584-0.989,1.108-1.574,1.573l-0.429-0.572
			l-0.572-0.429c-1.083-0.491-2.822-0.326-3.863-0.858l0.141-0.709l0.002-0.723c0.167,0.023,0.254-0.031,0.286-0.143
			c-0.671-1.046-1.084-2.35-1.717-3.434c0.201-0.229,0.493-0.366,0.858-0.43c-0.299-0.655-0.776-1.132-1.431-1.431
			c-0.025,0.451-0.101,0.854-0.573,0.858c-1.402-0.458-2.681-1.039-3.72-1.86c0.251-0.368,0.206-1.033,0.572-1.287
			c0.98,0.45,1.78,1.081,2.861,1.431c-0.184-0.817-1.103-0.9-1.288-1.717c1.167-1.313,2.232-2.729,3.72-3.721
			c0.394,0.273,0.728,0.607,1.001,1.002l-0.572,0.429v0.716c0,0.144,0,0.286,0,0.429l-0.644-0.071l-0.071,0.645
			c-0.116,0.026-0.143,0.144-0.286,0.143c0,0.096,0,0.19,0,0.286l-0.644-0.071l-0.071,0.644c-0.048,0-0.096,0-0.143,0
			c0.225,0.782,2.88,3.587,3.577,3.147l0.644-0.071l-0.072-0.644c0.231,0.04,0.247-0.136,0.429-0.144c0-0.095,0-0.19,0-0.286
			l0.644-0.071l-0.071-0.644c0.203,0.012,0.405,0.023,0.429-0.144h0.715l0.429-0.572c0.429,0.286,0.894,0.537,1.145,1.002
			c-1.419,1.204-2.587,2.659-4.006,3.863c-0.554-0.257-0.846-0.775-1.431-1.002c0.252,0.893,0.854,1.435,1.001,2.433
			c-0.237,0.43-1.063,0.271-1.145,0.858c1.667,0.145,3.055,0.569,4.865,0.572L41.359,81.764z"/>
		<path fill-rule="evenodd" clip-rule="evenodd" d="M13.173,58.871l-0.572-0.43c0.419-0.867,1.202-1.373,1.86-2.003l0.429,0.572
			l0.572,0.43c0.199,1.994,1.074,3.313,1.431,5.15h-0.715l-0.572,0.43c-0.744-1.117-0.825-2.896-1.574-4.007
			c-0.08,0.206-0.223,0.35-0.429,0.43L13.173,58.871z"/>
		<path fill-rule="evenodd" clip-rule="evenodd" d="M26.908,44.42l-0.572-0.429c0.54-0.509,0.839-1.26,1.574-1.574l0.429,0.572
			l0.429,0.572c0,0.095,0,0.19,0,0.286l-1.002,0.143l-0.143,1.001c-0.095,0-0.19,0-0.286,0L26.908,44.42z"/>
		<path fill-rule="evenodd" clip-rule="evenodd" d="M38.068,33.117l-0.572-0.429c1.218-2.92,6.868-3.273,9.3-1.145l-0.572,0.429
			l-0.429,0.573c-1.359-0.502-3.121-1.2-5.008-0.716c-0.854,2.269-1.501,6.297-0.572,9.014c0.004-0.139,0.175-0.111,0.286-0.143
			l0.429,0.572l0.572,0.429c-0.847,0.41-1.349,1.538-0.429,2.29l0.429,0.572l0.572,0.429c-0.097,0.333-0.475,0.383-0.572,0.715
			c0.333,0.431,0.507,1.019,0.715,1.574l-0.572,0.43l-0.429,0.572c-2.358-3.387-3.498-9.385-2.718-14.594L38.068,33.117z"/>
		<path fill-rule="evenodd" clip-rule="evenodd" d="M49.054,34.214l0.175-0.955c0.095,0,0.19,0,0.286,0l0.429,0.572l0.572,0.429
			c-0.389,0.469-0.877,0.84-1.431,1.145l-0.43-0.572l-0.572-0.429c0-0.048,0-0.095,0-0.143L49.054,34.214z"/>
		<path fill-rule="evenodd" clip-rule="evenodd" d="M70.262,48.569l-0.572-0.429c0.369-0.489,0.798-0.918,1.287-1.288l0.43,0.572
			l0.572,0.43c0,0.047,0,0.095,0,0.143l-0.955,0.175l-0.047,0.97c-0.095,0-0.19,0-0.286,0L70.262,48.569z"/>
		<path fill-rule="evenodd" clip-rule="evenodd" d="M73.031,51.155l0.521-0.439c0.275,0.058,0.112,0.555,0.572,0.429l0.596,0.357
			l0.691-0.071c0.006,0.71,1.486-0.055,1.717,0.43c0,0.238,0,0.477,0,0.715c-0.832,0.169-2.455-0.452-2.432,0.572
			c0.256,0.745,2.176-0.173,2.432,0.572c0,0.239,0,0.478,0,0.716c-0.763,0-1.525,0-2.289,0c-0.355,0.217,0.088,1.232-0.286,1.431
			c-0.477,0-0.954,0-1.431,0c-0.039-0.485,0.111-1.16-0.143-1.431c-0.736-0.171-2.219,0.405-2.29-0.43c0-0.095,0-0.19,0-0.286
			c0.229-0.772,2.216,0.213,2.433-0.572c0.139-1.188-1.93-0.169-2.433-0.715c0-0.239,0-0.478,0-0.716c0.572,0,1.145,0,1.718,0
			c0-0.096,0-0.19,0-0.286L73.031,51.155z"/>
		<g>
			<path fill-rule="evenodd" clip-rule="evenodd" fill="none" stroke="#000000" stroke-width="1.2906" stroke-linecap="round" d="
				M68.054,19.401c0.647,3.384,3.541,5.583,6.718,5.56c8.842-0.064,8.724-13.419-0.148-13.307
				C71.091,11.699,67.338,14.867,68.054,19.401"/>
			<path fill-rule="evenodd" clip-rule="evenodd" fill="none" stroke="#000000" stroke-width="1.3849" stroke-linecap="round" d="
				M75.647,18.247c0.868-1.09,1.205-2.682,2.412-3.43"/>
			<path fill-rule="evenodd" clip-rule="evenodd" fill="none" stroke="#000000" stroke-width="1.1208" stroke-linecap="round" d="
				M44.396,71.43c-0.726-0.607-1.496-1.173-2.211-1.795"/>
			<path fill-rule="evenodd" clip-rule="evenodd" fill="none" stroke="#000000" stroke-width="0.9085" stroke-linecap="round" d="
				M40.716,70.389c0.796,0.586,1.511,1.264,2.321,1.828"/>
			<path fill-rule="evenodd" clip-rule="evenodd" fill="none" stroke="#000000" stroke-width="1.1219" stroke-linecap="round" d="
				M42.171,73.486c-0.812-0.808-1.94-1.32-2.529-2.311"/>
			<path fill-rule="evenodd" clip-rule="evenodd" fill="none" stroke="#000000" stroke-width="1.1226" stroke-linecap="round" d="
				M38.784,70.46c-1.108-0.706-2.033-1.679-2.972-2.607"/>
			<path fill-rule="evenodd" clip-rule="evenodd" fill="none" stroke="#000000" stroke-width="0.9133" stroke-linecap="round" d="
				M39.571,69.388c-0.761-0.753-1.589-1.459-2.321-2.258"/>
			<path fill-rule="evenodd" clip-rule="evenodd" fill="none" stroke="#000000" stroke-width="1.0882" stroke-linecap="round" d="
				M40.572,68.161c-1.219-1.016-2.525-2.093-3.195-3.555"/>
			<path fill-rule="evenodd" clip-rule="evenodd" fill="none" stroke="#000000" stroke-width="1.2871" stroke-linecap="round" d="
				M72.301,35.37c2.604-6.156,12.754-6.061,13.726,1.445c0.599,4.623-5.154,9.498-9.866,6.364"/>
			<path fill-rule="evenodd" clip-rule="evenodd" fill="none" stroke="#000000" stroke-width="1.2908" stroke-linecap="round" d="
				M74.413,44.842c3.479,0.958,6.449,3.368,6.06,7.214c-0.64,6.335-10.875,8.447-12.804,0.333c-0.104-0.152-0.266-0.343-0.419-0.527
				"/>
			<path fill-rule="evenodd" clip-rule="evenodd" fill="none" stroke="#000000" stroke-width="1.4326" stroke-linecap="round" d="
				M39.929,83.194c-1.877,1.695-3.438,3.735-5.35,5.354c-13.03-0.492-25.877-9.921-26.93-23.56c1.678-2.163,3.624-4.13,5.524-6.117"
				/>
			<path fill-rule="evenodd" clip-rule="evenodd" fill="none" stroke="#000000" stroke-width="1.4381" stroke-linecap="round" d="
				M14.89,57.011c3.915-4.277,8.031-8.377,12.019-12.591"/>
			<path fill-rule="evenodd" clip-rule="evenodd" fill="none" stroke="#000000" stroke-width="1.4384" stroke-linecap="round" d="
				M28.339,42.989c3.282-3.257,6.411-6.648,9.729-9.873"/>
			<path fill-rule="evenodd" clip-rule="evenodd" fill="none" stroke="#000000" stroke-width="1.5142" stroke-linecap="round" d="
				M49.944,33.832c0.312-0.36,0.778-0.597,0.921-1.083"/>
			<path fill-rule="evenodd" clip-rule="evenodd" fill="none" stroke="#000000" stroke-width="1.2969" stroke-linecap="round" d="
				M50.865,32.749c-6.122-6.118,4.311-15.437,10.024-9.291"/>
			<path fill-rule="evenodd" clip-rule="evenodd" fill="none" stroke="#000000" stroke-width="1.4463" stroke-linecap="round" d="
				M50.865,32.749c1.055-0.351,1.804-1.249,2.656-1.922"/>
			<path fill-rule="evenodd" clip-rule="evenodd" fill="none" stroke="#000000" stroke-width="1.42" stroke-linecap="round" d="
				M47.369,39.984c5.014-4.051,10.168-7.944,15.167-12.019"/>
			<path fill-rule="evenodd" clip-rule="evenodd" fill="none" stroke="#000000" stroke-width="1.4478" stroke-linecap="round" d="
				M67.687,51.002c0.817-0.857,1.693-1.648,2.575-2.433"/>
			<path fill-rule="evenodd" clip-rule="evenodd" fill="none" stroke="#000000" stroke-width="1.4234" stroke-linecap="round" d="
				M71.406,47.424c0.668-0.667,1.335-1.335,2.003-2.003"/>
			<path fill-rule="evenodd" clip-rule="evenodd" fill="none" stroke="#000000" stroke-width="1.4341" stroke-linecap="round" d="
				M75.576,39.249c-1.021-0.983-1.946-2.065-2.882-3.127"/>
			<path fill-rule="evenodd" clip-rule="evenodd" fill="none" stroke="#000000" stroke-width="1.4293" stroke-linecap="round" d="
				M71.549,34.833c-2.3-2.378-4.411-4.924-6.725-7.297"/>
			<path fill-rule="evenodd" clip-rule="evenodd" fill="none" stroke="#000000" stroke-width="0.8192" stroke-linecap="round" d="
				M75.576,39.249c0.55-1.103,1.692-0.696,2.626-0.981"/>
			<path fill-rule="evenodd" clip-rule="evenodd" fill="none" stroke="#000000" stroke-width="1.3134" stroke-linecap="round" d="
				M78.325,37.419c-0.838-0.98-1.09-2.523-2.269-3.144"/>
			<path fill-rule="evenodd" clip-rule="evenodd" fill="none" stroke="#000000" stroke-width="1.2961" stroke-linecap="round" d="
				M80.015,37.767c0.753-1.14,1.164-2.739,2.337-3.491"/>
			<path fill-rule="evenodd" clip-rule="evenodd" fill="none" stroke="#000000" stroke-width="1.4192" stroke-linecap="round" d="
				M40.93,41.272c1.153-1.056,2.403-1.972,3.577-3.004"/>
			<path fill-rule="evenodd" clip-rule="evenodd" fill="none" stroke="#000000" stroke-width="1.4207" stroke-linecap="round" d="
				M45.938,37.123c0.889-0.79,1.847-1.483,2.718-2.29"/>
			<path fill-rule="evenodd" clip-rule="evenodd" fill="none" stroke="#000000" stroke-width="1.4233" stroke-linecap="round" d="
				M49.054,34.214c-0.708-1.011-1.84-1.569-2.83-2.243"/>
			<path fill-rule="evenodd" clip-rule="evenodd" fill="none" stroke="#000000" stroke-width="1.4296" stroke-linecap="round" d="
				M54.094,69.602c2.229-2.217,4.582-4.287,6.867-6.438"/>
			<path fill-rule="evenodd" clip-rule="evenodd" fill="none" stroke="#000000" stroke-width="1.4226" stroke-linecap="round" d="
				M53.235,60.302c-4.849-3.109-8.709-7.644-11.59-12.591"/>
			<path fill-rule="evenodd" clip-rule="evenodd" fill="none" stroke="#000000" stroke-width="1.4207" stroke-linecap="round" d="
				M41.502,44.563c1.15-0.912,2.337-1.793,3.458-2.742"/>
			<path fill-rule="evenodd" clip-rule="evenodd" fill="none" stroke="#000000" stroke-width="1.4415" stroke-linecap="round" d="
				M75.576,39.249c0.312,0.318,0.494,0.731,0.838,1.022"/>
			<path fill-rule="evenodd" clip-rule="evenodd" fill="none" stroke="#000000" stroke-width="1.4422" stroke-linecap="round" d="
				M57.813,60.588c1.046-1.107,2.252-2.032,3.291-3.147"/>
			<path fill-rule="evenodd" clip-rule="evenodd" fill="none" stroke="#000000" stroke-width="1.4331" stroke-linecap="round" d="
				M41.359,81.764c3.638-3.67,7.396-7.203,11.16-10.73"/>
			<path fill-rule="evenodd" clip-rule="evenodd" fill="none" stroke="#000000" stroke-width="1.427" stroke-linecap="round" d="
				M52.949,70.174c-0.323-0.527-1.37-0.616-1.908-0.73C38.535,66.79,33.009,57.104,28.483,45.226
				c-0.188-0.492-0.237-0.752-0.716-1.235"/>
			<path fill-rule="evenodd" clip-rule="evenodd" fill="none" stroke="#000000" stroke-width="1.2961" stroke-linecap="round" d="
				M74.721,51.502c0.753-1.139,1.164-2.738,2.337-3.491"/>
			<path fill-rule="evenodd" clip-rule="evenodd" fill="none" stroke="#000000" stroke-width="1.3785" stroke-linecap="round" d="
				M73.031,51.155c-0.712-0.969-1.11-2.157-2.008-2.983"/>
			<path fill-rule="evenodd" clip-rule="evenodd" fill="none" stroke="#000000" stroke-width="1.4658" stroke-linecap="round" d="
				M63.68,60.444c2.072-1.01,1.315-3.921,0.279-5.435"/>
			<path fill-rule="evenodd" clip-rule="evenodd" fill="none" stroke="#000000" stroke-width="1.4202" stroke-linecap="round" d="
				M35.634,81.198c-9.422-1.867-16.437-9.793-19.457-18.607"/>
			<path fill-rule="evenodd" clip-rule="evenodd" fill="none" stroke="#000000" stroke-width="1.0776" stroke-linecap="round" d="
				M40.072,74.037c-1.346-1.365-2.784-2.845-4.436-3.863"/>
			<path fill-rule="evenodd" clip-rule="evenodd" fill="none" stroke="#000000" stroke-width="0.9132" stroke-linecap="round" d="
				M38.999,74.824c-1.451-1.052-2.713-2.345-4.006-3.577"/>
			<path fill-rule="evenodd" clip-rule="evenodd" fill="none" stroke="#000000" stroke-width="0.8861" stroke-linecap="round" d="
				M37.997,75.969c-1.357-1.219-2.708-2.437-4.006-3.72"/>
		</g>
	</g>
</g>
</svg>
