<?xml version="1.0" encoding="utf-8"?>
<!-- Generator: Adobe Illustrator 14.0.0, SVG Export Plug-In . SVG Version: 6.00 Build 43363)  -->
<!DOCTYPE svg PUBLIC "-//W3C//DTD SVG 1.1//EN" "http://www.w3.org/Graphics/SVG/1.1/DTD/svg11.dtd">
<svg version="1.1" id="Ebene_1" xmlns="http://www.w3.org/2000/svg" xmlns:xlink="http://www.w3.org/1999/xlink" x="0px" y="0px"
	 width="100px" height="100px" viewBox="0 0 100 100" enable-background="new 0 0 100 100" xml:space="preserve">
<circle fill="#B2B2B2" cx="50" cy="50" r="50"/>
<g>
	<g>
		<path fill-rule="evenodd" clip-rule="evenodd" d="M47.256,43.129c2.525,4.917,5.134,9.6,8.144,14.109
			c0.989,1.481,2.115,2.904,2.753,4.588c1.371,0.426,2.709,0.886,4.244,1.147c-2.331-1.951-4.318-4.246-4.703-8.145
			c0.629-7.876,8.95-11.921,17.092-11.471c6.926,0.384,13.797,4.26,14.453,11.356c-0.794,6.471-5.161,9.368-10.897,10.896
			c0.866,2.593,2.52,5.899,4.015,8.718c0.398,0.75,1.522,2.293,1.377,2.868c-0.262,1.033-3.865,1.391-5.735,1.376
			c-0.74,2.631-0.513,6.559-0.574,9.521c-2.487,0.998-6.644,0.515-9.521,0.229c-0.234-0.224-0.563-0.354-0.688-0.688
			c-2.643,0.507-6.773,0.836-9.063-0.229c-0.454-6.241,1.015-12.512,3.212-16.862c-3.102-1.219-6.035-2.605-8.259-4.703
			c-0.876,0.194-1.732,0.409-2.868,0.345c0.705,6.904,1.896,14.315,2.524,21.679c-3.142,0.485-7.795,0.567-10.783-0.114
			c-0.729-3.516-1.344-7.145-2.064-10.668c-0.803,0-1.606,0-2.409,0c-0.844,3.4-1.111,7.377-1.72,11.012
			c-2.516,1.509-7.871,1.483-10.668,0.229c0.049-6.987,1.183-13.881,2.18-20.303c-3.744,0.103-8.934,0.403-11.241-1.605
			c5.362-6.95,9.616-15.009,13.879-23.057c-7.203-2.661-13.056-6.674-14.453-15.141c0.074-0.715-0.095-1.563,0-2.409
			C16.6,15.823,26.161,10.746,36.359,9.52c1.215-0.146,2.56-0.061,3.785,0c10.376,0.517,19.899,6.656,21.221,16.174
			C61.254,36.097,54.889,40.247,47.256,43.129z M59.645,24.432c-2.556-8.712-11.412-14.405-22.482-13.65
			c-9.429,0.643-18.407,5.362-19.958,13.994c-0.838,4.662,1.066,8.255,3.097,10.782c3.152,3.923,8.065,6.349,13.65,7.456
			c-0.071,0.529,0.257,0.66,0.229,1.147c-1.039-0.07-1.818-0.4-2.868-0.459c-3.913,7.978-8.267,15.516-13.191,22.483
			c2.524,0.818,6.352,0.835,9.406,0.458c1.008-5.464,2.592-11.593,4.129-16.517c0.219-0.699,0.185-1.898,1.376-1.606
			c-0.035,0.265,0.332,0.128,0.344,0.344c-0.674,2.874-1.487,5.73-2.179,8.604c-2.186,9.071-4.154,19.292-4.588,30.053
			c2.313,0.694,5.504,0.692,7.686-0.114c0.715-3.721,0.95-7.921,1.835-11.471c2.113-0.13,4.9-0.106,7.227,0
			c1.163,0.053,2.762-0.156,3.097,0.917c-0.943,1.044-3.249,0.029-4.933,0.345c0.583,3.24,1.227,6.42,1.835,9.635
			c2.421,0.127,5.397,0.229,7.8,0c-1.424-13.258-3.418-26.557-4.932-39.344c0.336-0.123,0.592-0.326,1.147-0.229
			c0.518,0.95,0.632,2.203,0.803,3.326c0.705,4.633,1.11,9.734,1.835,14.453c3.09-0.236,5.716-0.937,6.539-3.441
			c-3.946-5.612-7.5-11.618-10.668-18.009c-0.688,0.077-1.229,0.3-1.95,0.344c-0.023-0.436-0.102-0.816-0.229-1.147
			C52.493,40.734,60.796,35.556,59.645,24.432z M86.486,58.959c1.505-2.397,1.296-6.307-0.115-8.488
			c-5.034-7.786-20.792-7.687-25.809,0.114c-0.811,1.261-1.511,3.119-1.262,5.047c0.617,4.781,4.514,6.694,8.259,8.604
			c0.064,0.249,0.273,0.939,0,1.146c-2.722-1.407-7.189-1.069-9.979-2.408c-0.671,1.05-1.59,1.852-2.867,2.294
			c1.816,1.93,4.42,3.073,7.226,4.015c0.728-1.132,1.673-4.504,3.327-2.867c-3.518,5.161-5.589,11.771-5.851,20.188
			c2.395,0.426,5.519,0.26,7.686-0.229c-0.122-1.215-0.508-2.168-0.459-3.556c-1.22-0.615-3.798,0.128-4.015-1.491
			c1.375-0.619,4.039,0.168,5.506,0.574c0.108,1.88,0.262,3.715,0.688,5.276c2.121,0.28,4.857,0.32,7.112,0.114
			c-0.308-3.1,0.147-6.015,0.344-8.947c-0.261-0.236-0.76-0.234-1.032-0.459c-0.694-1.347-1.738-2.963-2.294-4.702
			c-0.346-1.079-0.924-2.557-0.345-3.671c0.577-0.205,0.909,0.142,1.262,0.459c0.312,2.938,1.435,5.065,2.639,7.111
			c1.628,0.35,4.315,0.435,5.391-0.459c-1.87-3.367-3.632-6.844-5.047-10.667c-0.501-0.081-0.646,0.194-1.146,0.114
			c-0.228-0.385-0.53-0.693-0.688-1.146C80.195,64.358,84.357,62.35,86.486,58.959z"/>
		<path fill-rule="evenodd" clip-rule="evenodd" d="M33.033,25.809c0.11,0.905-1.078,1.479-1.95,2.064
			c-0.888,0.597-2.133,1.752-3.097,1.147c-0.576-0.972,0.65-1.592,1.491-2.18c1.04-0.726,2.164-1.839,3.441-1.262
			C32.899,25.712,32.943,25.783,33.033,25.809z"/>
		<path fill-rule="evenodd" clip-rule="evenodd" d="M51.959,28.562c-0.906,1.333-2.018,0.049-2.867-0.459
			c-0.994-0.595-2.197-0.902-2.982-1.491c-0.221-1.059,0.842-1.073,1.376-1.032c0.653,0.05,1.848,0.689,2.638,1.147
			C50.978,27.221,51.926,27.879,51.959,28.562z"/>
		<path fill-rule="evenodd" clip-rule="evenodd" d="M46.224,30.97c-0.154,1.408-2.281,1.91-3.785,2.065
			c-2.459,0.254-5.5-0.484-6.539-1.721c0.14-0.263,0.35-0.618,0.688-0.574c1.59,0.208,3.488,1.274,5.735,1.033
			C44.016,31.591,44.735,30.451,46.224,30.97z"/>
		<path fill-rule="evenodd" clip-rule="evenodd" d="M63.315,50.814c0.156-2.834,5.19-2.796,5.506-0.344
			C69.193,53.364,63.697,53.792,63.315,50.814z M64.921,50.93c0.154,0.979,2.604,1.324,2.295-0.574
			C66.501,49.529,64.749,49.831,64.921,50.93z"/>
		<path fill-rule="evenodd" clip-rule="evenodd" d="M79.489,51.503c1.551-0.173,2.634,0.372,2.982,1.262
			c1.397,3.57-6.099,3.941-5.392,0.344C77.252,52.237,78.221,51.644,79.489,51.503z M78.571,53.683
			c0.108,0.968,2.729,1.375,2.409-0.574C80.325,52.273,78.456,52.65,78.571,53.683z"/>
		<path fill-rule="evenodd" clip-rule="evenodd" d="M76.277,55.174c-1.889,3.033-8.491,2.413-8.374-1.606
			c1.862-1.155,1.702,2.1,3.557,2.409C73.526,56.321,74.869,53.734,76.277,55.174z"/>
		<g>
		</g>
	</g>
</g>
</svg>
