<?xml version="1.0" encoding="utf-8"?>
<!-- Generator: Adobe Illustrator 14.0.0, SVG Export Plug-In . SVG Version: 6.00 Build 43363)  -->
<!DOCTYPE svg PUBLIC "-//W3C//DTD SVG 1.1//EN" "http://www.w3.org/Graphics/SVG/1.1/DTD/svg11.dtd">
<svg version="1.1" id="Ebene_1" xmlns="http://www.w3.org/2000/svg" xmlns:xlink="http://www.w3.org/1999/xlink" x="0px" y="0px"
	 width="100px" height="100px" viewBox="0 0 100 100" enable-background="new 0 0 100 100" xml:space="preserve">
<circle fill="#B2B2B2" cx="50" cy="50" r="50"/>
<g>
	<g>
		<path fill-rule="evenodd" clip-rule="evenodd" d="M24.556,27.277c5.829-4.199,18.434-3.295,24.894-0.325
			c-1.252-4.28-3.995-7.796-6.834-11.063c-1.271-1.463-3.259-2.313-3.905-4.23c3.682-3.89,15.158-6.027,20.012-1.627
			c0.119,6.359-1.568,12.31-3.742,16.921c0.031,0.138-0.063,0.153-0.162,0.163c4.086-3.022,14.367-4.442,19.688-0.976l-0.488,0.651
			v0.813c-3.275-1.018-6.596-2.001-10.576-1.627c-4.398,0.413-7.85,2.961-10.576,4.718c-5.707-4.362-19.462-6.119-27.17-2.278
			l-0.488-0.651L24.556,27.277z"/>
		<path fill-rule="evenodd" clip-rule="evenodd" d="M69.299,86.825l0.488,0.65c-1.92,1.068-4.379,2.165-6.834,2.115
			c-3.07-0.063-6.588-1.776-10.25-1.79c-1.631-0.006-3.668,0.346-5.369,0.651c-1.537,0.275-3.124,1.201-4.718,1.302
			c-3.359,0.212-6.604-1.917-9.111-2.604l0.488-0.65v-0.813c2.515,0.198,5.456,2.249,8.46,2.114
			c1.636-0.073,3.295-0.874,4.881-1.139c3.586-0.597,7.125-0.639,10.902,0c1.607,0.272,3.258,0.96,4.881,0.977
			c2.238,0.022,4.268-1.256,6.182-1.627V86.825z"/>
		<path fill-rule="evenodd" clip-rule="evenodd" d="M37.247,44.035c3.786-0.469,2.063,7.57-1.464,6.996
			C32.308,50.466,34.199,44.414,37.247,44.035z"/>
		<path fill-rule="evenodd" clip-rule="evenodd" d="M62.953,44.686c4.326-1.375,6.531,7.355,1.465,6.671
			C62.344,51.076,59.426,45.808,62.953,44.686z"/>
		<path fill-rule="evenodd" clip-rule="evenodd" d="M25.532,50.055c2.285-0.062,8.367,0.264,8.46,3.417
			c0.088,2.972-4.989,3.992-8.623,3.905c-3.426-0.082-7.34-1.227-7.484-3.579C17.689,50.596,22.226,50.146,25.532,50.055z"/>
		<path fill-rule="evenodd" clip-rule="evenodd" d="M74.83,51.031c2.953-0.289,9.41-0.1,9.6,2.767
			c0.281,4.245-14.42,4.923-15.293,0.324C68.734,52.004,72.01,51.308,74.83,51.031z"/>
		<path fill-rule="evenodd" clip-rule="evenodd" d="M69.299,69.904c1.166,0.746,5.213-0.514,4.719,1.465
			c-0.342,1.362-3.971,0.539-5.207,0l0.488-0.651V69.904z"/>
		<path fill-rule="evenodd" clip-rule="evenodd" d="M44.405,66.65c-0.519,0.674-1.64,0.746-2.766,0.813l-0.587-0.89l-1.04,0.238
			c-0.145-0.071-0.291-0.143-0.326-0.324L40.338,66l0.488-0.651c0.701,0.284,1.604,0.45,2.44,0.163l0.488,0.65L44.405,66.65z"/>
		<g>
			<path fill-rule="evenodd" clip-rule="evenodd" fill="none" stroke="#000000" stroke-width="1.6375" stroke-linecap="round" d="
				M33.993,86.5C20.264,82.741,9.535,68.162,11.146,54.589c1.179-9.935,4.638-21.267,14.061-26.823"/>
			<path fill-rule="evenodd" clip-rule="evenodd" fill="none" stroke="#000000" stroke-width="1.641" stroke-linecap="round" d="
				M69.299,86.825C91.064,76.89,97.871,38.24,74.018,26.79"/>
			<path fill-rule="evenodd" clip-rule="evenodd" fill="none" stroke="#000000" stroke-width="1.366" stroke-linecap="round" d="
				M55.795,52.577c-0.08,4.755-8.317,5.726-9.112,0.813"/>
			<path fill-rule="evenodd" clip-rule="evenodd" fill="none" stroke="#000000" stroke-width="1.6475" stroke-linecap="round" d="
				M65.76,67.748c0.508,1.586,2.01,2.541,3.539,2.97"/>
			<path fill-rule="evenodd" clip-rule="evenodd" fill="none" stroke="#000000" stroke-width="1.6712" stroke-linecap="round" d="
				M65.76,67.748c3.662-2.386,1.473-7.641-2.209-6.938c-3.807,0.728-3.385,6.256-0.172,6.957
				C64.254,67.958,64.379,67.449,65.76,67.748"/>
			<path fill-rule="evenodd" clip-rule="evenodd" fill="none" stroke="#000000" stroke-width="1.6904" stroke-linecap="round" d="
				M32.176,71.342c3.115,3.551,7.633-1.732,8.876-4.768"/>
			<path fill-rule="evenodd" clip-rule="evenodd" fill="none" stroke="#000000" stroke-width="1.6483" stroke-linecap="round" d="
				M40.338,66c-1.069-1.344-0.932-3.211,0.03-4.181c2.617-2.638,7.604,2.007,3.386,4.343"/>
		</g>
	</g>
</g>
</svg>
