<?xml version="1.0" encoding="utf-8"?>
<!-- Generator: Adobe Illustrator 14.0.0, SVG Export Plug-In . SVG Version: 6.00 Build 43363)  -->
<!DOCTYPE svg PUBLIC "-//W3C//DTD SVG 1.1//EN" "http://www.w3.org/Graphics/SVG/1.1/DTD/svg11.dtd">
<svg version="1.1" id="Ebene_1" xmlns="http://www.w3.org/2000/svg" xmlns:xlink="http://www.w3.org/1999/xlink" x="0px" y="0px"
	 width="100px" height="100px" viewBox="0 0 100 100" enable-background="new 0 0 100 100" xml:space="preserve">
<circle fill="#B2B2B2" cx="50" cy="50" r="50"/>
<g>
	<g>
		<path fill-rule="evenodd" clip-rule="evenodd" d="M85.047,53.683c-0.717,0.791-1.823,1.194-3.292,1.233
			c-0.089,7.043-0.525,13.738-0.41,20.984c-18.891,3.67-36.376,8.745-53.694,13.988c-0.287-1.015-0.201-2.405-0.206-3.703
			c-3.576-1.361-7.771-2.103-11.726-3.085c0.581-15.755,0.937-34.971-0.206-49.374c1.055-1.3,3.006-1.256,4.526-1.646
			c4.456-1.144,9.586-2.737,14.194-4.114c-0.084-5.744-0.756-10.901-1.028-16.458c2.663-1.527,5.495-1.01,8.641-1.44
			c1.919-0.262,3.882-1.229,5.965-1.646c3.821-0.765,7.932-1.289,12.344-0.822c1.07,3.044,1.606,6.621,2.263,10.08
			c1.223-0.15,3.351-1.173,4.731-1.852c4.769,1.599,10.373,4.125,16.252,3.292c0.241,7.99-1.015,16.265-1.029,24.687l-0.883,1.061
			l0.678,1.203c0.029,2.292-0.356,4.168-0.206,6.583c0.86,0.174,0.972-0.4,1.646-0.412l0.617,0.823L85.047,53.683z M41.022,12.949
			c-0.528,5.581-1.283,12.158-0.412,17.898c1.217-0.086,1.869-0.737,3.086-0.823c0.159-5.352-0.456-11.485-0.206-15.635
			c3.992-0.945,8.203-1.671,12.96-1.852c0.322,0.57,0.711,1.073,1.44,1.235c0.528,1.619,0.62,3.71,0.823,5.76
			c0.176,1.777,0.088,4.385,1.028,5.555c1.703-0.262,0.914-2.143,0.822-3.292c-0.348-4.413-1.129-8.834-2.057-12.138
			C51.543,9.618,45.683,10.684,41.022,12.949z M35.468,13.155c0.527,4.479,0.649,9.363,1.029,13.989
			c1.916,0.214,1.565-1.38,1.646-2.674c0.267-4.302,0.153-8.756,0.617-12.137c-0.137,0-0.274,0-0.412,0
			C37.462,12.681,36.248,12.701,35.468,13.155z M52.749,21.589c1.411-0.372,2.581-0.985,3.908-1.44
			c-0.269-1.721-0.52-3.458-0.616-5.349c-1.381-0.145-2.258,0.211-3.498,0.206l-1.199-0.651l-0.858,1.063
			c-1.805,0.115-3.424,0.416-4.937,0.822c0.273,2.401,0.208,5.14,0.205,7.817c1.846-0.349,3.233-1.156,4.938-1.646l1.316,0.309
			L52.749,21.589z M67.354,18.298c-1.771,0.025-2.842,1.564-4.731,1.852c0.274,1.166,0.268,2.613,0.412,3.908
			c4.086-1.125,8.328-2.095,12.343-3.292C72.508,20.768,69.886,18.261,67.354,18.298z M79.287,52.653
			c0.033-0.015,0.408,0.02,0.411,0c0.684-4.652,0.575-10.234,0.822-15.429c0.255-5.34,0.569-11.013,0.617-15.429
			c-19.472,4.392-37.39,10.337-55.133,16.458c1.818,15.668,3.406,31.565,3.703,48.756c15.893-4.817,31.843-9.574,49.374-12.755
			c0.088-6.494,0.382-12.784,0.411-19.338c-0.332-0.058-0.354,0.195-0.617,0.206l-0.617-0.823l-0.822-0.616c0-0.207,0-0.412,0-0.618
			l0.993,0.103L79.287,52.653z M45.96,26.321c0,0.96,0,1.92,0,2.88c3.743-1.057,7.229-2.371,11.108-3.292
			c-0.028-1.274-0.094-2.511-0.411-3.497C53.24,23.863,49.722,25.214,45.96,26.321z M20.244,34.138
			c0.924,1.27,3.132,1.257,4.32,2.263c4.579-1.593,9.189-3.154,13.783-4.731c0.028-1.058-0.03-2.027-0.411-2.675
			C32.327,30.997,26.439,32.722,20.244,34.138z M25.182,67.671c0.088-0.46,1.014-0.084,1.44-0.205
			c-0.726-9.972-1.67-19.726-2.88-29.213c-1.934-0.672-3.722-1.49-5.555-2.263c0.115,9.417,0.299,18.764,0.206,28.389
			c0.913,0.021,0.714-1.067,1.44-1.233l0.617,0.822l0.823,0.617c0.009,0.352-0.153,0.533-0.412,0.617c0,0.138,0,0.274,0,0.412
			l-1.318-0.103l-0.944,0.926c-0.408,4.804-0.321,10.103-0.618,15.017c3.474,0.437,6.259,1.559,9.463,2.263
			c0.052-2.383-0.362-4.301-0.206-6.788c-0.206,0-0.412,0-0.617,0V75.9l-0.618-0.823c0.175-0.306,0.663-0.298,1.029-0.411
			c0.142-1.857-0.348-3.082-0.206-4.938c-0.239-0.173-0.551-0.271-1.028-0.206v-1.028L25.182,67.671z"/>
		<path fill-rule="evenodd" clip-rule="evenodd" d="M68.795,36.401c0.015-0.002,0.052-0.193,0.206-0.206
			c6.423-0.538,6.034,9.236,0,8.641C65.185,44.459,63.315,37.351,68.795,36.401z"/>
		<path fill-rule="evenodd" clip-rule="evenodd" d="M48.223,39.693c0.014-0.002,0.052-0.193,0.206-0.206
			c6.423-0.538,6.034,9.236,0,8.64C44.612,47.75,42.743,40.642,48.223,39.693z"/>
		<path fill-rule="evenodd" clip-rule="evenodd" d="M38.76,47.51c2.077-0.211,5.113-0.606,5.349,1.646
			c0.288,2.755-6.202,4.763-9.875,4.114c-3.478-0.614-2.503-3.427,0-4.732C35.092,48.091,36.683,47.722,38.76,47.51z"/>
		<path fill-rule="evenodd" clip-rule="evenodd" d="M58.509,49.773c-0.06-1.74,2.352-3.365,2.88-1.646
			C61.78,49.399,59.72,51.8,58.509,49.773z"/>
		<g>
			<path fill-rule="evenodd" clip-rule="evenodd" fill="none" stroke="#000000" stroke-width="2.1108" stroke-linecap="round" d="
				M81.489,44.868c4.54-0.572,7.096,6.088,2.735,8.197"/>
			<path fill-rule="evenodd" clip-rule="evenodd" fill="none" stroke="#000000" stroke-width="2.2068" stroke-linecap="round" d="
				M52.008,22.721c-0.735-2.71-0.155-5.608-0.664-8.366"/>
			<path fill-rule="evenodd" clip-rule="evenodd" fill="none" stroke="#000000" stroke-width="1.9116" stroke-linecap="round" d="
				M78.258,54.299c-0.571,4.402-9.674,2.397-6.734-2.78c1.58-2.782,6.871-1.896,6.905,1.648"/>
			<path fill-rule="evenodd" clip-rule="evenodd" fill="none" stroke="#000000" stroke-width="2.0909" stroke-linecap="round" d="
				M20.45,63.968c1.145-1.213,2.325-2.416,3.326-3.737"/>
			<path fill-rule="evenodd" clip-rule="evenodd" fill="none" stroke="#000000" stroke-width="1.9481" stroke-linecap="round" d="
				M23.096,69.034c0.909-0.177,1.785-0.441,2.703-0.54"/>
			<path fill-rule="evenodd" clip-rule="evenodd" fill="none" stroke="#000000" stroke-width="2.136" stroke-linecap="round" d="
				M23.096,69.034c-1.045-1.319-2.761-2.012-3.553-3.522"/>
			<path fill-rule="evenodd" clip-rule="evenodd" fill="none" stroke="#000000" stroke-width="1.9362" stroke-linecap="round" d="
				M23.096,69.034c-2.672,2.729-0.432,7.815,3.526,6.866"/>
		</g>
	</g>
</g>
</svg>
