<?xml version="1.0" encoding="utf-8"?>
<!-- Generator: Adobe Illustrator 14.0.0, SVG Export Plug-In . SVG Version: 6.00 Build 43363)  -->
<!DOCTYPE svg PUBLIC "-//W3C//DTD SVG 1.1//EN" "http://www.w3.org/Graphics/SVG/1.1/DTD/svg11.dtd">
<svg version="1.1" id="Ebene_1" xmlns="http://www.w3.org/2000/svg" xmlns:xlink="http://www.w3.org/1999/xlink" x="0px" y="0px"
	 width="100px" height="100px" viewBox="0 0 100 100" enable-background="new 0 0 100 100" xml:space="preserve">
<circle fill="#B2B2B2" cx="50" cy="50" r="50"/>
<g>
	<g>
		<path fill-rule="evenodd" clip-rule="evenodd" d="M78.14,34.974c4.103,1.08,8.519,1.845,12.551,2.995
			c-0.362,8.633-1.688,16.822-2.425,25.385c-0.106,1.243,0.024,2.745-0.285,3.566c-0.281,0.745-1.702,1.733-2.567,2.566
			c-4.363,4.203-8.492,8.153-12.692,12.266c-1.691,1.655-3.502,3.224-4.706,5.276C48.501,82.108,29.08,77.093,9.542,72.197
			c-0.188-11.412-0.75-23.21-0.856-34.228c7.425-4.037,15.287-8.859,22.961-13.121c0.382-1.282,0.079-3.249,0.998-3.994
			c4.38,0.271,11.431,1.663,16.971,2.567c1.678,0.274,4.185,1.032,5.42,0.855c1-0.143,2.891-1.673,3.993-2.139
			c1.336-0.565,2.917-1.125,4.992-1.141C72.45,20.933,77.654,25.968,78.14,34.974z M33.644,22.424
			c-0.47,5.71-1.254,11.106-1.997,16.543c8.245,1.929,16.614,3.733,24.958,5.562c1.247-6.026,2.779-11.768,3.994-17.827
			C51.485,25.404,42.798,23.68,33.644,22.424z M74.004,26.845c-2.986-4.38-11.83-5.817-16.4-2.14
			c1.582,0.462,3.843,0.246,4.849,1.284c0.042,2.086-0.772,3.315-0.998,5.134c4.877,1.208,9.84,2.33,14.832,3.423
			C75.982,31.571,75.431,28.937,74.004,26.845z M11.538,38.397c19.023,4.746,37.948,9.591,56.762,14.547
			c6.754-4.513,13.162-9.372,19.681-14.12c-7.736-1.811-16.093-3.578-23.816-5.419c-1.027-0.245-2.565-1.017-3.138-0.285
			c1.075,1.75,7.728,1.183,7.986,3.28c0.147,1.192-1.754,1.961-2.71,2.709c-2.332,1.827-3.922,2.971-6.133,4.707
			c-0.914,0.718-2.134,2.128-3.137,2.282c-1.851,0.283-4.548-0.927-6.846-1.426c-6.982-1.517-14.372-2.903-20.109-4.707
			c-0.28-4.371,1.288-8.884,1.141-13.121C24.746,30.783,17.921,34.369,11.538,38.397z M58.744,42.818
			c1.387-0.849,2.777-1.961,4.136-2.995c1.366-1.04,2.979-1.982,3.708-3.28c-2.152-0.367-3.877-1.162-6.133-1.426
			C60.039,37.838,59.313,40.25,58.744,42.818z M10.397,40.108c0.208,10.346,0.824,20.283,0.856,30.806
			c18.307,4.844,36.838,9.465,55.335,14.119c0.566-10.036,0.896-20.308,1.142-30.663c-18.979-4.98-38.111-9.809-57.19-14.689
			C10.374,39.705,10.385,39.906,10.397,40.108z M69.583,54.37c-0.237,9.841-0.695,19.461-1.141,29.094
			c5.919-5.11,11.787-11.507,17.827-16.972c0.782-8.82,1.613-17.592,2.709-26.099c-0.095,0-0.189,0-0.285,0
			C82.336,45.064,75.756,49.514,69.583,54.37z"/>
		<path fill-rule="evenodd" clip-rule="evenodd" d="M24.659,53.372c-0.387,1.664-2.795,2.043-2.567,3.851
			c1.014-0.744,1.897-1.621,2.852-2.425c0.538,0.271,0.966,0.65,1.426,0.998c-0.367,1.06-1.373,1.479-2.139,2.14
			c0.05,0.473,0.822,0.224,1.283,0.285c0.027,1.7,0.018,2.556,0,4.278c-0.523,0-1.045,0-1.568,0c0-0.714-0.717-0.709-1.426-0.713
			c-0.755,2.05-1.194,4.416-1.997,6.418c-0.923,0.02-1.553-0.253-2.282-0.428c0.313-2.351,1.083-4.241,1.711-6.275
			c-0.537-0.461-1.733-0.264-2.424-0.57c0.05-0.759,0.276-1.341,0.57-1.854c0.668,0.053,1.727,0.388,2.139-0.143
			c-0.167-1.401-1.04-2.098-1.283-3.423c0.447-0.503,0.832-1.069,1.426-1.426c0.318,0.062,0.508,0.252,0.57,0.57
			C22.113,53.633,22.985,51.637,24.659,53.372z M22.377,59.646c0.44,0.178,1.014,0.223,1.569,0.286
			c-0.033-0.586,0.186-1.423-0.428-1.427C23.424,59.173,22.761,59.271,22.377,59.646z"/>
		<path fill-rule="evenodd" clip-rule="evenodd" d="M28.509,63.641c-0.23-0.486-0.972-1.068-0.143-1.427
			c-0.564-0.434-1.694-0.302-2.424-0.57c0.044-0.621,0.165-1.166,0.285-1.711c0.533-0.011,0.986,0.06,1.284,0.285
			c0.897-0.624,1.418-1.625,1.997-2.567c-0.721,0.183-1.104,0.702-1.854,0.855c-0.59-0.36-0.926-0.976-1.426-1.426
			c1.789-0.875,4.059-3.953,5.99-1.712c-0.32,0.821-1.245,1.037-1.854,1.569c0.514,0.389,1.302,0.504,1.997,0.713
			c-0.316,1.253-1.187,1.95-1.854,2.853c0.641,0.357,1.662,0.335,2.567,0.428c0.177-0.05-0.118-0.822,0-1.284
			c0.306-0.264,1.044-0.096,1.569-0.143c-0.428-1.426-1.483-2.225-1.569-3.993c0.567-0.24,1.504-0.111,2.282-0.143
			c0.511,1.533,1.453,2.636,2.139,3.993c-0.498,0.453-1.383,0.52-1.997,0.856c-0.112,1.486,0.685,2.679,0.428,3.851
			c-0.635,0.173-1.461,0.154-2.282,0.143c-0.169-0.354-0.207-0.84-0.285-1.284c-0.703-0.485-2.139-0.237-2.995-0.57
			c0.086,0.63,1.235,1.426,1.711,2.14c-0.201,0.654-0.989,0.722-1.426,1.141c-0.565-0.147-0.665-0.761-1.141-0.998
			c-0.34,1.086-0.694,2.158-0.999,3.28c1.224,0.839,1.797-0.421,1.997-1.427c0.772-0.059,1.119,0.309,1.711,0.429
			c0.058-0.676-0.254-0.982-0.143-1.712c0.469-0.292,1.444-0.077,2.139-0.143c0.33,1.382,0.286,3.137,0.428,4.706
			c-0.619,0.19-1.376,0.241-2.14,0.285c-0.273-0.345-0.09-1.146-0.143-1.711c-0.609,2.849-4.842,1.575-6.703,0.57
			c-0.062-1.439,0.707-2.051,0.713-3.423c-0.684,1.028-1.38,2.043-2.139,2.995c-0.749-0.155-1.232-0.574-1.711-0.998
			c0.023-0.689,0.643-0.784,0.855-1.284c-0.027-0.543-1.053-0.087-1.283-0.428c0.02-1.121,0.23-2.052,0.428-2.995
			c0.524,0.047,1.263-0.121,1.569,0.143c-0.018,0.934-0.154,1.748-0.428,2.425c0.881-0.213,0.815-1.372,1.426-1.854
			c0.739,0.021,1.149,0.372,1.711,0.57c0.25-0.13,0.261-0.5,0.428-0.714C27.67,63.434,28.155,63.472,28.509,63.641z"/>
		<path fill-rule="evenodd" clip-rule="evenodd" d="M48.048,58.506c-0.333,2.472-2.655,2.954-4.136,4.278
			c0.768,0.517,2.093,0.475,2.995,0.856c0.207,0.539-0.392,0.273-0.285,0.713c0.767,0.43,1.805-0.094,2.709,0
			c0.167-0.464-0.4-1.268-0.713-1.712c-0.592,0.121-0.698,0.728-1.426,0.713c-0.553-0.255-0.938-0.679-1.284-1.141
			c1.133-1.48,2.93-2.299,3.851-3.993c0.915-0.013,1.498,0.309,2.139,0.57c0.424,0.411-0.356,0.248-0.285,0.713
			c1.679,0.746,3.958,0.891,5.848,1.427c0.048,0.714-0.334,0.997-0.285,1.711c-1.972-0.021-1.953,1.945-3.565,2.282
			c0.497,0.881,1.759,0.998,2.424,1.711c-0.146,0.757-0.772,1.034-1.141,1.569c-1.461-0.536-2.739-1.254-3.708-2.282
			c-0.494,0.172-1.021,0.311-1.712,0.285c0.394,0.367,1.228,0.294,1.712,0.57c0.015,0.442-0.175,0.682-0.285,0.999
			c1.021,0.547,2.632,0.506,3.708,0.998c0.021,1.289-0.683,2.359-1.141,3.423c-0.229,0.528-0.193,1.28-0.571,1.711
			c-1.208,1.378-3.354,0.206-5.276-0.143c-0.112-0.92,0.311-1.306,0.57-1.854c1.771,1.046,3.303,0.299,3.423-1.712
			c-0.262-0.498-1.19-0.33-1.711-0.57c-1.813,1.752-3.863,3.269-7.274,3.423c-0.226-0.53-0.778-1.349-0.57-1.854
			c2.001-0.329,3.875-0.784,4.992-1.997c-0.508-0.537-1.709-0.383-2.425-0.713c0.031-0.491,0.371-0.675,0.428-1.141
			c-0.835-0.075-0.718,0.803-1.283,0.998c-0.798,0.085-0.89-0.536-1.426-0.713c-1.004,1.135-0.407,3.282-1.426,4.278
			c-1.007,0.984-3.045-0.005-4.278-0.57c0.319-0.395,0.309-1.117,0.57-1.569c0.654,0.012,0.969,0.362,1.711,0.285
			c0.649-0.539,0.45-1.927,0.999-2.566c-1.066,0.079-1.981,2.131-3.423,1.854c0.085-0.846-0.25-1.271-0.143-2.139
			c1.635-0.647,2.661-1.903,3.993-2.853c-0.668-0.521-2.014-0.363-2.71-0.855c0.483-0.325,0.326-1.29,0.713-1.712
			c0.964,0.129,1.845,0.342,2.709,0.57c-0.396-0.792-0.829-1.548-1.426-2.139c0.257-0.599,0.951-0.762,1.569-0.999
			c0.86,0.233,0.933,1.254,1.569,1.712c0.687-0.312,1.233-0.764,1.854-1.141c-1.299-0.841-3.65-0.629-4.992-1.427
			c0.161-0.553,0.4-1.026,0.571-1.568C42.911,57.272,45.578,57.791,48.048,58.506z M51.898,63.498
			c0.93-0.211,1.335-0.947,1.997-1.427c-1.051-0.281-2.085-0.578-3.28-0.713C51.107,62.007,51.094,63.161,51.898,63.498z
			 M42.628,66.635c0.524-0.521,1.14-0.951,1.426-1.711c-0.463,0.083-0.664-0.098-0.999-0.143
			C43.16,65.555,42.288,66.099,42.628,66.635z M45.481,66.777c0.964,0.13,1.845,0.342,2.709,0.571
			c0.119-0.309,0.369-0.487,0.285-0.999c-0.493,0.22-1.3,0.126-1.997,0.143c-0.13-0.25-0.049-0.711-0.285-0.855
			C46.207,66.269,45.416,66.095,45.481,66.777z"/>
		<path fill-rule="evenodd" clip-rule="evenodd" d="M19.239,62.071c-0.31,1.83-1.285,2.994-1.854,4.563
			c-0.895,0.134-1.084-0.437-1.711-0.57C17.036,64.934,16.663,60.675,19.239,62.071z"/>
		<g>
		</g>
	</g>
</g>
</svg>
