<?xml version="1.0" encoding="utf-8"?>
<!-- Generator: Adobe Illustrator 14.0.0, SVG Export Plug-In . SVG Version: 6.00 Build 43363)  -->
<!DOCTYPE svg PUBLIC "-//W3C//DTD SVG 1.1//EN" "http://www.w3.org/Graphics/SVG/1.1/DTD/svg11.dtd">
<svg version="1.1" id="Ebene_1" xmlns="http://www.w3.org/2000/svg" xmlns:xlink="http://www.w3.org/1999/xlink" x="0px" y="0px"
	 width="100px" height="100px" viewBox="0 0 100 100" enable-background="new 0 0 100 100" xml:space="preserve">
<circle fill="#B2B2B2" cx="50" cy="50" r="50"/>
<g>
	<g>
		<path fill-rule="evenodd" clip-rule="evenodd" d="M25.443,72.361c-1.246-1.177-2.656-2.88-2.083-5.417
			c-1.886-1.262-4.255-2.042-6.25-3.194c1.656-2.788,3.966-4.923,5.972-7.361c-1.686-2.574-3.595-4.924-4.722-8.056
			c-2.871-0.173-5.806,0.289-8.333,0c-0.034-3.531-0.692-6.438-0.694-10c2.421-0.082,5.643,0.046,8.333,0.139
			c0.818-2.006,1.555-4.094,2.778-5.695c-1.755-2.422-5.027-4.57-7.222-7.083c2.166-2.696,4.885-4.837,7.361-7.223
			c2.451,2.271,4.616,4.829,7.083,7.083c2.497-1.115,4.969-2.253,7.639-3.194c-0.116-2.986-0.422-5.782-0.417-8.889
			c2.033-0.167,4.7-0.297,7.222-0.417c1.925-0.091,4.048-0.183,5,0.556c0,2.731,0,5.463,0,8.194c2.665,0.576,5.171,1.311,7.223,2.5
			c2.387-1.872,3.919-4.599,6.389-6.389c3.313,2.149,6.599,4.327,9.861,6.528c-2.109,2.613-4.783,4.661-6.945,7.222
			c0.348,1.009,1.128,1.676,1.806,2.778c0.942,1.53,0.986,4.387,3.194,4.444c1.509,0.039,5.818-2.982,7.917-0.556l-0.556,0.417
			l-0.416,0.556c-1.084-0.373-2.264-0.368-3.195-0.139c-4.481,1.102-8.561,4.107-12.777,5.417l-0.417-0.556l-0.556-0.417
			c2.402-1.58,5.563-2.4,8.056-3.889c-6.556-2.519-12.941-5.207-19.583-7.639c-1.178,1.738-2.044,3.789-3.333,5.417l-0.417-0.555
			l-0.556-0.417c1.096-2.283,2.267-4.493,3.75-6.389c2.774,1.021,5.814,2.519,8.473,3.194c-9.107-9.299-29.638-4.458-29.723,10
			c-0.034,5.812,3.173,9.415,6.667,11.528c0.004-0.136,0.17-0.108,0.278-0.14l0.44,0.533l0.671,0.161
			c-0.345,1.509-1.792,2.651-1.945,3.89c0.148-0.315,0.421-0.505,0.833-0.556l0.417,0.556l0.556,0.416
			c-1.178,1.033-2.863,2.205-4.583,3.75c-1.358,1.221-3.753,2.845-3.889,4.445c-0.124,1.468,1.104,2.239,1.667,3.472l-0.555,0.417
			L25.443,72.361z"/>
		<path fill-rule="evenodd" clip-rule="evenodd" d="M79.749,46.667l0.556-0.417c0.783,1.254,1.311,2.763,1.806,4.306h-0.694
			l-0.556,0.416c-0.955-1.081-1.314-2.76-1.806-4.305H79.749z"/>
		<path fill-rule="evenodd" clip-rule="evenodd" d="M85.027,57.361l0.416-0.556c0.849,0.864,1.465,1.961,1.945,3.194l-0.556,0.417
			l-0.417,0.555c-0.877-0.835-1.384-2.041-1.944-3.194L85.027,57.361z"/>
		<path fill-rule="evenodd" clip-rule="evenodd" d="M86.416,67.5l0.556,0.417c-0.377,0.41-0.643,0.931-1.25,1.11l-0.836-0.101
			l-0.275,0.795c-5.381,2.259-10.78,4.498-15.694,7.223l-0.903-0.069l-0.485,0.764c-1.066,0.185-1.571,0.93-2.64,1.111l-0.416-0.556
			l-0.556-0.417c4.76-2.656,10.051-5.202,15.417-7.5c2.427-1.039,4.886-1.802,6.666-3.333L86.416,67.5z"/>
		<path fill-rule="evenodd" clip-rule="evenodd" d="M64.749,55.416c-2.488-2.3-2.126-8.927,2.5-7.5
			c1.666,0.514,2.651,2.223,3.473,3.889h-0.694l-0.556,0.416c-0.112-0.026-0.139-0.139-0.278-0.139
			c-0.511,1.341-1.356,2.348-3.333,2.223c0,0.139,0,0.277,0,0.416l-0.605,0.269L64.749,55.416z"/>
		<path fill-rule="evenodd" clip-rule="evenodd" d="M51.416,60.694c-1.331-1.22-1.757-4.622-0.834-6.25
			c1.886-3.323,7.07-0.746,7.361,2.361l-0.625,0.139l-0.485,0.417c-0.093,0-0.186,0-0.278,0c-0.433,1.789-1.499,2.945-3.889,2.777
			c0,0.093,0,0.186,0,0.278l-0.672-0.07L51.416,60.694z"/>
		<path fill-rule="evenodd" clip-rule="evenodd" d="M76.693,61.944c-0.398,0.557-1.566,0.827-2.36,0.556
			c0.253,2.502,3.264,0.719,4.305,1.389c-0.698,2.688-4.113,1.827-5.277,0.417c-2.502-3.031-0.262-8.553,3.75-5.973l-0.556,0.417
			l-0.417,0.556c-2.177-1.072-2.791,2.468-0.416,1.666l0.416,0.556L76.693,61.944z"/>
		<path fill-rule="evenodd" clip-rule="evenodd" d="M37.805,60.694c2.345-1.235,7.512-4.7,10-1.111
			c0.338,0.488,0.631,1.414,0.973,2.084c1.859,3.649,4.644,8.695,5.694,12.5h-0.694l-0.556,0.416
			c-1.665-3.784-3.678-8.171-5.833-11.806c-0.875-1.475-1.488-4.202-3.75-3.056c-1.368,0.693-3.242,1.171-4.861,1.945l-0.417-0.556
			L37.805,60.694z"/>
		<path fill-rule="evenodd" clip-rule="evenodd" d="M50.027,81.806l0.555,0.416c-0.679,0.71-1.816,0.962-3.055,1.111l-0.486-0.764
			l-0.903,0.069c-1.735-1.367-2.188-4.016-3.333-5.972l0.556-0.417l0.417-0.556c2.083,1.593,1.885,7.577,5.833,5.556L50.027,81.806z
			"/>
		<path fill-rule="evenodd" clip-rule="evenodd" d="M31.555,65.277l-0.556-0.416c0.927-0.786,1.884-1.542,3.056-2.084l0.417,0.556
			l0.556,0.417c-0.039,0.285-0.371,0.277-0.556,0.417c0.056,0.545,0.611,0.593,0.695,1.11l-0.556,0.417l-0.556,0.417
			c-0.869-0.613-1.082-0.987-2.083-0.278L31.555,65.277z"/>
		<path fill-rule="evenodd" clip-rule="evenodd" d="M64.055,59.444c0.217,0.318,0.217,1.348,0,1.667c-0.186,0-0.37,0-0.556,0
			C62.57,60.959,62.771,58.513,64.055,59.444z"/>
		<path fill-rule="evenodd" clip-rule="evenodd" d="M55.999,69.861c1.137-0.671,3.938,1.052,4.444-1.25
			c-1.652,0.059-3.333-0.813-3.61-1.944c-0.86-3.504,3.691-3.573,5-2.084c1.389,1.582,0.55,5.642-1.667,6.667
			C59.089,71.748,56.462,72.083,55.999,69.861z M60.722,65.972c-0.094-0.624-1.066-1.063-1.806-0.694
			C56.938,66.264,61.07,68.314,60.722,65.972z"/>
		<path fill-rule="evenodd" clip-rule="evenodd" d="M43.638,69.027c1.445-0.247,3.334,0.703,2.778,2.778
			c-0.158,0.588-1.193,1.312-1.528,1.389C42.317,73.788,40.141,69.627,43.638,69.027z"/>
		<g>
			<path fill-rule="evenodd" clip-rule="evenodd" fill="none" stroke="#000000" stroke-width="1.3116" stroke-linecap="round" d="
				M84.886,68.927c6.198,10.37-12.21,17.971-16.873,7.948"/>
			<path fill-rule="evenodd" clip-rule="evenodd" fill="none" stroke="#000000" stroke-width="1.4316" stroke-linecap="round" d="
				M64.472,78.194c-4.29,2.301-8.846,4.767-13.295,7.401c-4.224,2.502-10.888,7.612-14.448,2.768
				c-3.339-4.545-5.356-11.49-10.05-15.812c-0.247-0.227-0.505-0.381-0.819-0.746"/>
			<path fill-rule="evenodd" clip-rule="evenodd" fill="none" stroke="#000000" stroke-width="1.4581" stroke-linecap="round" d="
				M32.689,55.255c3.552-6.111,7.063-12.239,10.671-18.311"/>
			<path fill-rule="evenodd" clip-rule="evenodd" fill="none" stroke="#000000" stroke-width="1.4029" stroke-linecap="round" d="
				M32.666,59.306c8.167-6.156,17.369-10.804,26.528-15.278"/>
			<path fill-rule="evenodd" clip-rule="evenodd" fill="none" stroke="#000000" stroke-width="1.4929" stroke-linecap="round" d="
				M86.416,67.5c2.006-1.798,2.386-5.102,0.417-7.083"/>
			<path fill-rule="evenodd" clip-rule="evenodd" fill="none" stroke="#000000" stroke-width="1.4657" stroke-linecap="round" d="
				M85.027,57.361c-1.408-2.141-2.564-4.467-3.611-6.806"/>
			<path fill-rule="evenodd" clip-rule="evenodd" fill="none" stroke="#000000" stroke-width="1.4747" stroke-linecap="round" d="
				M79.749,46.667c-1.346-2.567-1.218-6.129-3.75-7.917"/>
			<path fill-rule="evenodd" clip-rule="evenodd" fill="none" stroke="#000000" stroke-width="1.3397" stroke-linecap="round" d="
				M70.027,51.806c2.05,4.194-2.023,7.114-4.772,3.185"/>
			<path fill-rule="evenodd" clip-rule="evenodd" fill="none" stroke="#000000" stroke-width="1.329" stroke-linecap="round" d="
				M57.318,56.944c2.194,4.124-2.747,7.944-5.324,3.402"/>
			<path fill-rule="evenodd" clip-rule="evenodd" fill="none" stroke="#000000" stroke-width="1.4682" stroke-linecap="round" d="
				M76.138,61.527c0.995-0.567,1.497-2.014,0.417-2.777"/>
			<path fill-rule="evenodd" clip-rule="evenodd" fill="none" stroke="#000000" stroke-width="1.4481" stroke-linecap="round" d="
				M47.041,82.569c-0.565,1.2-4.836,5.03-6.84,2.459c-2.613-3.351-7.813-12.244-10.073-15.113c-1.875-2.382-0.429-3.152,1.427-4.638
				"/>
			<path fill-rule="evenodd" clip-rule="evenodd" fill="none" stroke="#000000" stroke-width="1.386" stroke-linecap="round" d="
				M34.471,63.333c1.235-0.851,2.59-1.485,3.889-2.222"/>
			<path fill-rule="evenodd" clip-rule="evenodd" fill="none" stroke="#000000" stroke-width="1.4706" stroke-linecap="round" d="
				M50.027,81.806c2.507-1.841,6.416-4.035,3.75-7.639"/>
			<path fill-rule="evenodd" clip-rule="evenodd" fill="none" stroke="#000000" stroke-width="1.4425" stroke-linecap="round" d="
				M43.36,76.25c-2.559-3.801-5.436-7.37-8.75-10.556"/>
		</g>
	</g>
</g>
</svg>
