<?xml version="1.0" encoding="utf-8"?>
<!-- Generator: Adobe Illustrator 14.0.0, SVG Export Plug-In . SVG Version: 6.00 Build 43363)  -->
<!DOCTYPE svg PUBLIC "-//W3C//DTD SVG 1.1//EN" "http://www.w3.org/Graphics/SVG/1.1/DTD/svg11.dtd">
<svg version="1.1" id="Ebene_1" xmlns="http://www.w3.org/2000/svg" xmlns:xlink="http://www.w3.org/1999/xlink" x="0px" y="0px"
	 width="100px" height="100px" viewBox="0 0 100 100" enable-background="new 0 0 100 100" xml:space="preserve">
<circle fill="#B2B2B2" cx="50" cy="50" r="50"/>
<g>
	<g>
		<path fill-rule="evenodd" clip-rule="evenodd" d="M75.295,17.758c0,0.049,0,0.098,0,0.146c0.332,0.337,1.26,0.052,1.824,0.146
			c0,0.293,0,0.586,0,0.879c-0.59,0.312-1.711,0.072-2.527,0.147c0,0.244,0,0.488,0,0.733c0.537,0.417,1.984-0.117,2.527,0.293
			c0,0.293,0,0.586,0,0.879c-0.795,0-1.592,0-2.387,0c-0.26,0.314-0.096,1.073-0.141,1.612c-0.561,0-1.123,0-1.686,0
			c0-0.489,0-0.977,0-1.466c-0.561-0.392-1.965,0.099-2.527-0.293c0-0.245,0-0.488,0-0.733c0.592-0.311,1.711-0.071,2.527-0.147
			c0-0.244,0-0.488,0-0.732c-0.535-0.417-1.984,0.117-2.527-0.293c0-0.293,0-0.586,0-0.879c0.609,0,1.217,0,1.826,0
			c-0.637-1.681-1.867-2.741-2.387-4.542c0.607,0,1.217,0,1.824,0c0.549,1.43,1.418,2.525,1.967,3.957
			c0.451,0.128,0.291-0.38,0.561-0.44l0.512,0.45L75.295,17.758z"/>
		<path fill-rule="evenodd" clip-rule="evenodd" d="M33.03,59.965c-0.528,2.124-3.626,0.921-5.476,0.733
			c0.17,2.266,2.148,2.644,2.808,4.396c-0.717,1.368-4.139,1.257-5.757,0.732c0.147-0.481,0.067-1.199,0.281-1.611
			c0.961-0.075,1.529,0.259,2.527,0.146c-0.132-0.646-1.212-1.566-1.685-2.346c-1.71,0.507-2.797,3.569-4.493,3.518
			c-1.453-0.044-1.655-2.225-2.667-3.224c0.381-0.434,0.649-0.983,1.264-1.173c0.412,0.693,0.898,1.31,1.264,2.052
			c1.33-0.712,2.346-1.753,3.37-2.785c-0.791-1.616-1.958-2.841-2.808-4.396c0.142-0.585,0.842-0.586,1.124-1.025
			c1.326,1.059,1.945,2.854,3.089,4.104c0.325-0.638,0.048-1.903,0.141-2.784c0.486-0.178,1.054-0.268,1.685-0.294
			c0.087,1.068-0.245,1.698-0.14,2.785c0.653,0.442,1.633,0.543,2.667,0.586c-0.72-1.497-2.255-3.41-3.229-5.129
			c0.11-0.667,0.88-0.645,1.123-1.173C29.883,55.239,31.224,57.845,33.03,59.965z"/>
		<path fill-rule="evenodd" clip-rule="evenodd" d="M35.697,69.639c-0.14,0-0.281,0-0.421,0c0.246,1.345,1.677,2.084,2.667,3.077
			c0.996,0.997,2.095,1.931,2.809,3.077c-1.685,1.467-2.977,3.342-4.774,4.689c-0.909-0.223-1.337-0.949-2.106-1.319
			c0.017-0.616,0.507-0.741,0.702-1.172c1.379,0.967,1.876-0.399,0.562-1.025c-0.757,0.333-1.161,1.035-1.685,1.611
			c-0.62-0.183-0.91-0.711-1.404-1.025c0.431-0.674,1.113-1.085,1.544-1.759c-0.19-0.437-0.634-0.608-0.983-0.879
			c-0.897,0.284-1.069,1.326-1.966,1.612c-0.396-0.367-0.834-0.692-1.123-1.173c0.666-1.308,2.055-1.86,2.808-3.077
			c-1.196,0.656-2.246,1.467-3.791,1.759c0-0.539,0-1.075,0-1.612c-0.656,0.047-0.608,0.831-1.264,0.879
			c-0.225-0.548-0.874-0.652-0.983-1.319c0.979-1.615,2.543-2.621,3.791-3.956c-0.018-0.324-0.596-0.063-0.843-0.147
			c0.115-0.905,0.782-1.236,1.124-1.904c2.757-0.152,4.361-1.506,6.459-2.346c0.225,0.596,0.842,0.783,0.842,1.612
			c-3.255,1.536-5.928,3.681-8.284,6.156c2.252-0.533,3.965-2.896,5.897-4.251c0.337,0.577,0.927,0.889,1.264,1.466l-0.535,0.412
			L35.697,69.639z M34.855,72.716c0.346,0.323,0.616,0.725,1.124,0.879c0.029-0.164,0.156-0.228,0.281-0.293
			C36.292,72.501,35.042,71.563,34.855,72.716z M33.451,74.181c0.524,0.089,0.572,0.674,1.124,0.733
			c0.831-0.594-0.169-1.083-0.702-1.465C33.829,73.794,33.384,73.721,33.451,74.181z M38.646,75.207
			c-0.017-0.24-0.74-0.659-1.123-0.879C36.327,75.166,38.722,76.272,38.646,75.207z M35.838,76.233
			c0.387,0.279,0.736,0.599,1.123,0.879c0.042-0.299,0.38-0.288,0.421-0.586c-0.477-0.187-0.532-0.813-1.123-0.879
			C36.119,75.842,35.879,75.935,35.838,76.233z"/>
		<path fill-rule="evenodd" clip-rule="evenodd" d="M38.506,66.707c0.413,0.357,0.531-0.531,1.123-0.44
			c0.304,0.417,0.837,0.592,0.983,1.173c-0.033,0.454-0.391,0.569-0.562,0.879c0.384,0.625,1.02,0.987,1.404,1.612
			c0.493,0.026,0.462-0.494,0.843-0.586c0.596,0.258,1.017,0.697,1.264,1.319c-0.166,0.218-0.353,0.414-0.562,0.586
			c0.136,0.59,0.613,0.824,0.983,1.173c-0.201,0.572-0.575,0.963-1.124,1.172c-0.269-0.403-0.596-0.745-0.983-1.025
			c-0.847,0.731-1.23-0.365-1.825-0.732c-0.066-0.462,0.378-0.389,0.421-0.733c-0.384-0.625-1.02-0.988-1.404-1.612
			c-0.497-0.079-0.345,0.519-0.842,0.439c-0.316-0.452-0.69-0.843-1.124-1.173c-0.066-0.46,0.378-0.387,0.421-0.731
			c-0.313-0.504-0.801-0.826-1.124-1.319C36.686,65.327,38.118,65.659,38.506,66.707z"/>
		<path fill-rule="evenodd" clip-rule="evenodd" d="M60.691,22.448c0.611,0.112,0.77-0.736,1.264-0.293
			c0.662,1.702,1.588,3.13,2.668,4.397l-0.563,0.439l-0.42,0.586c-0.596-0.479-0.875,0.387-1.404,0.44l-0.422-0.586l-0.563-0.44
			c0.326-0.778-0.139-1.873-0.701-2.199c-2.303,2.139-4.691,4.19-7.16,6.155l-0.422-0.586l-0.563-0.44
			c-0.348-0.174-0.52-0.531-0.42-1.172c0.561,0,1.123,0,1.684,0c-0.205-1.505-1.832-2.769-2.246-4.543c0.609,0,1.217,0,1.826,0
			c0.543,1.192,1.096,2.373,1.824,3.371c1.27-0.728,1.814-2.21,2.668-3.371c1.061,0.146,2.176-0.323,1.967-1.026l0.49-0.366
			L60.691,22.448z"/>
		<path fill-rule="evenodd" clip-rule="evenodd" d="M70.66,34.465l0.563-0.439c0.047,0,0.094,0,0.141,0l0.035,0.99l0.947,0.036
			c0,0.098,0,0.196,0,0.293l-0.563,0.439l-0.42,0.586c-0.492-0.415-0.992-0.822-1.264-1.466L70.66,34.465z"/>
		<path fill-rule="evenodd" clip-rule="evenodd" d="M75.186,43.014l-0.172,0.978c-0.248,0.132-0.436,0.328-0.563,0.586l-0.98,0.14
			l-0.002,1.033c-0.252-0.018-0.297,0.18-0.563,0.146l-0.42-0.586l-0.563-0.44c1.041-1.306,2.355-2.329,3.51-3.517
			c0.025-0.515-0.473-0.482-0.561-0.879l0.561-0.44l0.422-0.586c0.516,0,1.029,0,1.545,0c0-0.245,0-0.489,0-0.733
			c-0.113-0.028-0.141-0.147-0.281-0.146l0.07-0.586l-0.492-0.293c0-0.098,0-0.196,0-0.293l0.613-0.283l0.512-0.45
			c0.27,0.06,0.109,0.568,0.561,0.439l0.586,0.367l0.678-0.074c0.006,0.728,1.459-0.056,1.686,0.44c0,0.245,0,0.488,0,0.733
			c-0.816,0.173-2.41-0.463-2.387,0.586c0.25,0.763,2.135-0.178,2.387,0.586c0,0.244,0,0.488,0,0.733c-0.75,0-1.498,0-2.246,0
			c-0.35,0.222,0.086,1.262-0.281,1.465c-0.635-0.022-1.486,0.184-1.545-0.439c-0.271,0.596-0.969,0.748-1.123,1.465L75.186,43.014z
			"/>
		<path fill-rule="evenodd" clip-rule="evenodd" d="M66.441,51.907l-0.133,1.023c-0.879,0.551-1.58,1.283-2.107,2.198l-0.99,0.003
			l-0.133,1.022c-0.971,0.453-1.393,1.478-2.246,2.052L60.41,57.62l-0.561-0.439c-4.904-5.044-9.491-10.417-14.745-15.094
			l-0.538-0.464l-0.445-0.562c0.881-0.285,1.07-1.73,0.421-2.491l-0.421-0.586l-0.562-0.439c0.453-0.504,0.937-0.976,1.544-1.319
			l0.421,0.586l0.421,0.586c0.273,0.497,0.124,1.435,0.562,1.759l0.421,0.586l0.562,0.44c-0.18,0.397-0.719,0.421-0.843,0.879
			c4.786,4.873,9.513,9.807,14.183,14.802c2.023-1.649,3.711-3.649,5.615-5.423l0.422,0.586l0.563,0.439c0,0.146,0,0.293,0,0.439
			L66.441,51.907z"/>
		<path fill-rule="evenodd" clip-rule="evenodd" d="M62.938,60.698l0.563,0.439c-0.719,1.204-1.793,2.038-2.809,2.931l-0.422-0.586
			l-0.561-0.439c-2.828,0.154-5.877-0.563-7.582-2.052l0.561-0.439l0.422-0.587c0.877,0.355,1.701,0.765,2.527,1.173
			c0.592-0.066,0.646-0.693,1.123-0.88l0.422,0.587l0.561,0.439c1.896,0.513,3.449-0.601,4.773-1.172L62.938,60.698z"/>
		<path fill-rule="evenodd" clip-rule="evenodd" d="M53.529,70.078l0.563,0.439c-0.531,0.568-1.113,1.085-1.686,1.612l-0.42-0.587
			l-0.563-0.439c0-0.098,0-0.195,0-0.293l0.982-0.146l0.141-1.025c0.252,0.019,0.297-0.181,0.563-0.147L53.529,70.078z"/>
		<path fill-rule="evenodd" clip-rule="evenodd" d="M41.033,82.534l0.562,0.439c-0.456,0.599-0.971,1.137-1.544,1.612L39.629,84
			l-0.562-0.439c-2.335-0.641-5.116-0.815-7.021-1.906l0.421-0.586v-0.732c2.524,0.736,5.016,1.507,8.144,1.612L41.033,82.534z"/>
		<path fill-rule="evenodd" clip-rule="evenodd" d="M13.372,59.086l-0.562-0.44c0.412-0.888,1.18-1.405,1.825-2.051l0.421,0.586
			l0.562,0.439c0.195,2.044,1.054,3.394,1.404,5.275h-0.702l-0.562,0.44c-0.729-1.144-0.81-2.966-1.544-4.104
			c-0.079,0.211-0.219,0.358-0.421,0.439L13.372,59.086z"/>
		<path fill-rule="evenodd" clip-rule="evenodd" d="M26.852,44.284l-0.562-0.44c0.53-0.521,0.823-1.29,1.544-1.612l0.421,0.586
			l0.421,0.587c0,0.097,0,0.195,0,0.293l-0.983,0.146l-0.14,1.026c-0.094,0-0.188,0-0.281,0L26.852,44.284z"/>
		<path fill-rule="evenodd" clip-rule="evenodd" d="M37.804,32.707l-0.562-0.44c1.195-2.99,6.739-3.352,9.126-1.172l-0.562,0.439
			l-0.421,0.586c-1.333-0.514-3.063-1.229-4.914-0.732c-0.838,2.324-1.474,6.45-0.562,9.233c0.004-0.143,0.172-0.114,0.281-0.146
			l0.421,0.586l0.562,0.44c-0.831,0.419-1.324,1.575-0.421,2.344l0.421,0.586l0.562,0.439c-0.095,0.341-0.467,0.393-0.562,0.733
			c0.326,0.441,0.498,1.043,0.702,1.612l-0.562,0.439l-0.421,0.586c-2.314-3.469-3.433-9.613-2.667-14.948L37.804,32.707z"/>
		<path fill-rule="evenodd" clip-rule="evenodd" d="M48.584,33.831l0.172-0.978c0.093,0,0.187,0,0.281,0l0.422,0.586l0.561,0.439
			c-0.382,0.48-0.86,0.86-1.404,1.172l-0.421-0.586l-0.562-0.439c0-0.048,0-0.098,0-0.146L48.584,33.831z"/>
		<path fill-rule="evenodd" clip-rule="evenodd" d="M69.396,48.534l-0.561-0.44c0.361-0.5,0.783-0.94,1.264-1.319l0.42,0.586
			l0.563,0.439c0,0.049,0,0.098,0,0.147l-0.938,0.18L70.1,49.12c-0.094,0-0.188,0-0.281,0L69.396,48.534z"/>
		<path fill-rule="evenodd" clip-rule="evenodd" d="M72.115,51.183l0.512-0.45c0.27,0.06,0.109,0.568,0.561,0.439l0.586,0.366
			l0.678-0.073c0.006,0.728,1.459-0.056,1.686,0.439c0,0.245,0,0.489,0,0.733c-0.816,0.174-2.41-0.463-2.387,0.586
			c0.25,0.764,2.135-0.178,2.387,0.586c0,0.245,0,0.489,0,0.733c-0.75,0-1.498,0-2.246,0c-0.35,0.222,0.086,1.263-0.281,1.465
			c-0.469,0-0.936,0-1.404,0c-0.039-0.497,0.109-1.188-0.141-1.465c-0.721-0.175-2.176,0.416-2.246-0.439c0-0.098,0-0.195,0-0.294
			c0.225-0.791,2.174,0.218,2.387-0.586c0.135-1.216-1.895-0.173-2.387-0.732c0-0.244,0-0.488,0-0.733c0.561,0,1.123,0,1.684,0
			c0-0.098,0-0.194,0-0.293L72.115,51.183z"/>
		<g>
			<path fill-rule="evenodd" clip-rule="evenodd" fill="none" stroke="#000000" stroke-width="1.2666" stroke-linecap="round" d="
				M67.23,18.658c0.635,3.467,3.475,5.718,6.592,5.695c8.678-0.065,8.561-13.745-0.145-13.629
				C70.211,10.77,66.527,14.014,67.23,18.658"/>
			<path fill-rule="evenodd" clip-rule="evenodd" fill="none" stroke="#000000" stroke-width="1.3591" stroke-linecap="round" d="
				M74.682,17.476c0.852-1.116,1.184-2.747,2.367-3.514"/>
			<path fill-rule="evenodd" clip-rule="evenodd" fill="none" stroke="#000000" stroke-width="1.2825" stroke-linecap="round" d="
				M41.384,74.548c-1.673-1.934-3.655-3.607-5.379-5.523"/>
			<path fill-rule="evenodd" clip-rule="evenodd" fill="none" stroke="#000000" stroke-width="1.2631" stroke-linecap="round" d="
				M71.398,35.015c2.555-6.306,12.516-6.208,13.469,1.48c0.588,4.734-5.059,9.728-9.682,6.519"/>
			<path fill-rule="evenodd" clip-rule="evenodd" fill="none" stroke="#000000" stroke-width="1.2668" stroke-linecap="round" d="
				M73.471,44.717c3.414,0.981,6.328,3.45,5.947,7.39c-0.629,6.489-10.672,8.652-12.564,0.341c-0.104-0.155-0.262-0.351-0.412-0.54"
				/>
			<path fill-rule="evenodd" clip-rule="evenodd" fill="none" stroke="#000000" stroke-width="1.4059" stroke-linecap="round" d="
				M39.629,84c-1.842,1.737-3.375,3.826-5.25,5.482C21.591,88.979,8.984,79.322,7.951,65.351c1.646-2.214,3.556-4.229,5.421-6.265"
				/>
			<path fill-rule="evenodd" clip-rule="evenodd" fill="none" stroke="#000000" stroke-width="1.4113" stroke-linecap="round" d="
				M15.057,57.181c3.841-4.381,7.881-8.581,11.794-12.896"/>
			<path fill-rule="evenodd" clip-rule="evenodd" fill="none" stroke="#000000" stroke-width="1.4116" stroke-linecap="round" d="
				M28.256,42.818c3.221-3.335,6.292-6.809,9.548-10.112"/>
			<path fill-rule="evenodd" clip-rule="evenodd" fill="none" stroke="#000000" stroke-width="1.2728" stroke-linecap="round" d="
				M50.363,32.33c-6.009-6.267,4.229-15.812,9.836-9.516"/>
			<path fill-rule="evenodd" clip-rule="evenodd" fill="none" stroke="#000000" stroke-width="1.4194" stroke-linecap="round" d="
				M50.363,32.33c1.034-0.359,1.77-1.279,2.606-1.968"/>
			<path fill-rule="evenodd" clip-rule="evenodd" fill="none" stroke="#000000" stroke-width="1.486" stroke-linecap="round" d="
				M50.363,32.33c-0.137,0.497-0.604,0.738-0.904,1.109"/>
			<path fill-rule="evenodd" clip-rule="evenodd" fill="none" stroke="#000000" stroke-width="1.3936" stroke-linecap="round" d="
				M46.93,39.741c4.921-4.149,9.978-8.136,14.884-12.31"/>
			<path fill-rule="evenodd" clip-rule="evenodd" fill="none" stroke="#000000" stroke-width="1.4208" stroke-linecap="round" d="
				M66.869,51.025c0.803-0.878,1.662-1.688,2.527-2.491"/>
			<path fill-rule="evenodd" clip-rule="evenodd" fill="none" stroke="#000000" stroke-width="1.3968" stroke-linecap="round" d="
				M70.52,47.362c0.656-0.684,1.311-1.368,1.967-2.052"/>
			<path fill-rule="evenodd" clip-rule="evenodd" fill="none" stroke="#000000" stroke-width="1.4063" stroke-linecap="round" d="
				M74.611,38.988c-1.002-1.007-1.908-2.116-2.828-3.204"/>
			<path fill-rule="evenodd" clip-rule="evenodd" fill="none" stroke="#000000" stroke-width="1.4026" stroke-linecap="round" d="
				M70.66,34.465c-2.258-2.436-4.328-5.043-6.6-7.474"/>
			<path fill-rule="evenodd" clip-rule="evenodd" fill="none" stroke="#000000" stroke-width="0.8039" stroke-linecap="round" d="
				M74.611,38.988c0.541-1.13,1.662-0.713,2.578-1.005"/>
			<path fill-rule="evenodd" clip-rule="evenodd" fill="none" stroke="#000000" stroke-width="1.2889" stroke-linecap="round" d="
				M77.311,37.113c-0.822-1.004-1.07-2.584-2.227-3.22"/>
			<path fill-rule="evenodd" clip-rule="evenodd" fill="none" stroke="#000000" stroke-width="1.272" stroke-linecap="round" d="
				M78.969,37.47c0.738-1.167,1.141-2.806,2.293-3.576"/>
			<path fill-rule="evenodd" clip-rule="evenodd" fill="none" stroke="#000000" stroke-width="1.3928" stroke-linecap="round" d="
				M40.612,41.06c1.132-1.082,2.358-2.02,3.51-3.078"/>
			<path fill-rule="evenodd" clip-rule="evenodd" fill="none" stroke="#000000" stroke-width="1.3942" stroke-linecap="round" d="
				M45.526,36.81c0.873-0.809,1.812-1.52,2.668-2.345"/>
			<path fill-rule="evenodd" clip-rule="evenodd" fill="none" stroke="#000000" stroke-width="1.3968" stroke-linecap="round" d="
				M48.584,33.831c-0.695-1.035-1.806-1.607-2.777-2.297"/>
			<path fill-rule="evenodd" clip-rule="evenodd" fill="none" stroke="#000000" stroke-width="1.4029" stroke-linecap="round" d="
				M53.529,70.078c2.189-2.271,4.498-4.392,6.74-6.596"/>
			<path fill-rule="evenodd" clip-rule="evenodd" fill="none" stroke="#000000" stroke-width="1.3961" stroke-linecap="round" d="
				M52.688,60.552c-4.758-3.185-8.547-7.828-11.374-12.897"/>
			<path fill-rule="evenodd" clip-rule="evenodd" fill="none" stroke="#000000" stroke-width="1.3942" stroke-linecap="round" d="
				M41.173,44.431c1.128-0.934,2.293-1.836,3.394-2.809"/>
			<path fill-rule="evenodd" clip-rule="evenodd" fill="none" stroke="#000000" stroke-width="1.4175" stroke-linecap="round" d="
				M74.611,38.988c0.307,0.326,0.486,0.749,0.822,1.046"/>
			<path fill-rule="evenodd" clip-rule="evenodd" fill="none" stroke="#000000" stroke-width="1.4153" stroke-linecap="round" d="
				M57.182,60.845c1.025-1.134,2.209-2.081,3.229-3.225"/>
			<path fill-rule="evenodd" clip-rule="evenodd" fill="none" stroke="#000000" stroke-width="1.4064" stroke-linecap="round" d="
				M41.033,82.534c3.57-3.759,7.258-7.378,10.953-10.991"/>
			<path fill-rule="evenodd" clip-rule="evenodd" fill="none" stroke="#000000" stroke-width="1.4004" stroke-linecap="round" d="
				M52.406,70.664c-0.316-0.54-1.344-0.631-1.871-0.748C38.261,67.197,32.838,57.278,28.397,45.11
				c-0.184-0.505-0.233-0.771-0.703-1.266"/>
			<path fill-rule="evenodd" clip-rule="evenodd" fill="none" stroke="#000000" stroke-width="1.272" stroke-linecap="round" d="
				M73.773,51.538c0.738-1.167,1.141-2.805,2.293-3.576"/>
			<path fill-rule="evenodd" clip-rule="evenodd" fill="none" stroke="#000000" stroke-width="1.3528" stroke-linecap="round" d="
				M72.115,51.183c-0.699-0.992-1.09-2.209-1.971-3.055"/>
			<path fill-rule="evenodd" clip-rule="evenodd" fill="none" stroke="#000000" stroke-width="1.4385" stroke-linecap="round" d="
				M62.938,60.698c2.033-1.034,1.291-4.017,0.273-5.566"/>
			<path fill-rule="evenodd" clip-rule="evenodd" fill="none" stroke="#000000" stroke-width="1.393" stroke-linecap="round" d="
				M32.468,81.068c-7.896-2.796-13.442-10.174-16.147-18.173"/>
		</g>
	</g>
</g>
</svg>
